<svg class="img-fluid" id="outputsvg" xmlns="http://www.w3.org/2000/svg" style="transform: matrix(0.769231, 0, 0, 0.769231, 0, 0); transform-origin: 50% 50%; cursor: move; transition: transform 200ms ease-in-out 0s;" width="577" height="433" viewBox="0 0 5770 4330"><g id="l1tkEMMLkhXbcjRdlVOvR8a" fill="rgb(0,0,0)" style="transform: none;"><g style="transform: none;"><path id="pnDW7uQBn" d="M0 2165 l0 -2165 2885 0 2885 0 0 2165 0 2165 -2885 0 -2885 0 0 -2165z m325 1835 c-6 -9 -9 -9 -16 1 -10 17 0 34 13 21 6 -6 7 -16 3 -22z m1490 -168 c-28 -73 -27 -348 1 -441 7 -25 12 -47 10 -49 -8 -7 -114 134 -139 183 -33 67 -64 176 -72 255 l-7 65 106 0 c81 0 105 -3 101 -13z m224 -2 c88 -25 279 -50 374 -50 56 1 172 -8 257 -19 85 -11 245 -32 355 -46 109 -14 201 -28 204 -30 2 -3 -1 -11 -7 -18 -7 -7 -24 -45 -38 -83 -22 -56 -27 -91 -31 -189 -3 -68 0 -146 6 -180 16 -85 66 -181 125 -241 57 -56 91 -76 166 -95 43 -11 61 -23 104 -70 62 -69 109 -145 138 -225 18 -48 23 -86 26 -206 l4 -148 31 0 c50 0 63 -13 48 -47 -7 -15 -19 -38 -27 -51 l-16 -24 -59 57 c-73 70 -174 118 -298 142 l-91 18 0 35 c0 60 -47 241 -85 333 -77 181 -227 371 -384 486 -25 18 -83 51 -128 73 l-82 39 -38 75 c-50 99 -65 114 -113 114 -51 0 -83 -28 -156 -135 -33 -49 -72 -94 -91 -105 -41 -24 -43 -24 -43 -4 0 15 -11 16 -85 12 l-84 -6 -31 79 c-61 159 -75 289 -45 417 25 105 31 110 94 92z m1546 -185 c327 -37 395 -46 488 -67 110 -25 107 -20 60 -113 -14 -27 -45 -89 -69 -136 -34 -67 -61 -102 -117 -156 -90 -85 -158 -125 -261 -153 -122 -34 -205 -15 -288 67 -98 97 -133 250 -88 389 21 65 62 156 82 181 6 7 20 11 32 8 11 -2 84 -11 161 -20z m-890 -895 c85 -210 115 -300 135 -405 20 -108 18 -105 48 -105 26 0 25 -1 -13 -26 -22 -15 -55 -41 -72 -57 l-33 -31 0 27 c0 23 -4 27 -30 27 -104 0 -209 -161 -186 -285 6 -31 11 -35 36 -35 34 0 35 -3 12 -50 -18 -37 -69 -69 -112 -70 -13 0 -43 7 -65 16 -39 14 -44 21 -72 92 -17 42 -33 101 -36 129 -7 63 -33 126 -71 171 -22 25 -35 32 -65 32 -68 0 -74 12 -61 115 22 168 58 332 101 460 46 138 142 341 210 444 l43 64 74 -154 c40 -85 111 -246 157 -359z m145 221 c37 -36 80 -84 95 -106 22 -31 17 -27 -21 15 -45 50 -81 85 -159 155 -26 23 -27 25 -6 14 14 -6 55 -41 91 -78z m-922 21 c-135 -150 -247 -405 -267 -607 l-6 -60 -80 -11 c-44 -6 -98 -19 -119 -28 -22 -9 -41 -14 -44 -11 -10 9 -4 136 9 188 32 133 105 260 206 360 97 95 208 167 257 167 14 0 38 11 53 25 42 37 40 30 -9 -23z m216 -24 c-9 -18 -49 -68 -88 -110 -40 -42 -95 -116 -124 -164 -29 -48 -52 -83 -52 -78 1 19 91 177 135 234 40 52 133 150 142 150 2 0 -4 -15 -13 -32z m865 -554 c11 -24 24 -61 27 -83 6 -39 5 -42 -27 -55 -19 -7 -44 -17 -56 -20 l-23 -7 0 132 0 133 30 -29 c16 -15 38 -47 49 -71z m-987 -31 c-2 -65 -6 -120 -8 -122 -1 -1 -25 4 -53 14 -55 18 -55 20 -18 105 14 33 73 120 81 120 2 0 1 -53 -2 -117z m1144 -23 c6 -42 4 -50 -10 -50 -13 0 -16 12 -15 73 0 79 13 68 25 -23z m-1538 -357 c-64 -124 -62 -118 -62 -293 -1 -158 0 -167 26 -222 34 -72 105 -149 166 -179 40 -20 63 -23 152 -24 89 0 111 4 146 22 22 12 46 29 53 37 17 20 31 21 31 2 0 -44 -104 -81 -258 -91 l-103 -7 -52 46 c-111 99 -145 138 -175 194 -33 61 -62 164 -62 220 0 30 -2 32 -34 32 -31 0 -34 -3 -40 -37 -10 -66 -6 -255 8 -328 8 -38 12 -72 10 -74 -2 -2 -24 4 -49 13 l-45 18 0 96 c0 151 34 332 77 417 32 62 75 105 136 134 63 31 82 37 75 24z m1822 -36 c73 -36 80 -47 130 -196 36 -107 60 -250 60 -357 l0 -82 -49 -21 c-66 -28 -73 -27 -60 6 33 88 49 266 33 366 -6 34 -9 37 -39 37 -32 0 -32 -1 -44 -69 -20 -111 -102 -249 -188 -316 -21 -17 -51 -43 -67 -58 -30 -28 -31 -28 -125 -21 -142 9 -261 50 -261 88 0 10 16 5 56 -19 65 -39 133 -51 233 -41 77 8 130 36 184 95 79 87 102 170 101 351 -1 143 -11 190 -55 252 l-22 30 24 -6 c13 -4 53 -22 89 -39z m-1555 -24 l40 -28 -27 -3 c-34 -4 -81 -58 -97 -111 -6 -21 -11 -79 -11 -129 l0 -91 45 -48 c25 -26 56 -60 70 -74 25 -27 25 -27 4 -32 -31 -8 -103 29 -140 71 -54 62 -83 137 -83 218 0 60 5 81 32 137 23 45 45 75 70 92 46 31 49 31 97 -2z m1289 -5 c52 -43 96 -139 96 -210 0 -72 -36 -171 -82 -223 -49 -56 -120 -92 -151 -77 -22 11 -22 11 -1 17 11 4 29 21 38 38 10 18 35 46 55 64 l36 32 0 103 c0 90 -3 109 -25 152 -16 32 -37 56 -58 67 -40 21 -40 29 1 51 43 23 47 23 91 -14z m621 -473 c7 -104 9 -111 36 -134 25 -22 29 -33 29 -78 0 -60 -9 -69 -95 -98 -194 -65 -536 -92 -750 -60 -100 16 -112 16 145 -1 172 -12 419 24 519 76 21 10 53 31 71 46 l32 28 -6 185 c-3 102 -8 206 -11 231 -3 32 0 26 9 -20 8 -36 17 -114 21 -175z m-2613 -10 c-6 -227 -5 -228 86 -274 141 -71 350 -98 621 -80 84 6 155 8 157 6 6 -6 -239 -27 -307 -27 -110 0 -336 30 -454 60 -181 45 -175 41 -175 113 0 50 4 63 23 81 21 19 25 35 31 122 6 100 17 194 21 194 1 0 0 -88 -3 -195z m1346 88 c-3 -38 -3 -38 -50 -41 -41 -3 -48 0 -48 15 0 10 -3 28 -6 41 -6 21 -4 22 50 22 l57 0 -3 -37z m187 -338 c17 -14 50 -37 75 -50 25 -13 41 -24 37 -25 -18 -1 -110 53 -146 85 -27 24 -48 35 -70 35 -29 0 -31 -2 -31 -35 l0 -35 -64 0 c-103 0 -126 7 -126 41 0 27 -3 29 -36 29 -28 0 -46 -9 -74 -34 -58 -52 -93 -66 -42 -18 l42 42 1 97 c1 67 4 87 8 63 10 -50 15 -56 66 -70 54 -15 249 -9 282 8 15 8 23 26 30 64 7 49 8 46 13 -59 5 -109 6 -112 35 -138z m-46 -195 c47 -24 174 -60 216 -61 43 -1 21 -6 -57 -14 l-68 -7 0 -34 c0 -28 4 -35 28 -40 135 -32 298 -76 347 -96 l60 -23 -250 -6 c-189 -5 -274 -3 -347 7 -54 8 -111 14 -128 14 -27 0 -30 -3 -30 -34 0 -30 10 -44 83 -111 90 -84 94 -81 -50 -44 -216 56 -458 192 -592 333 l-35 36 60 0 c133 1 340 45 398 86 16 11 57 14 174 14 132 0 158 -3 191 -20z"></path></g></g><g id="l1E5ndoyRHU7ZyZKtcb6jez" fill="rgb(20,85,157)" style="transform: none;"><g style="transform: none;"><path id="p120bpEvDK" d="M297 4085 c-9 -20 -31 -42 -52 -52 l-35 -18 34 -19 c19 -10 42 -33 52 -51 l17 -33 21 31 c12 17 36 41 54 53 l32 22 -30 12 c-17 7 -41 30 -53 51 l-23 39 -17 -35z m30 -72 c-9 -9 -20 -13 -24 -9 -4 4 -1 11 7 16 25 16 35 11 17 -7z"></path><path id="p10SqMcBku" d="M1584 3875 c-11 -29 5 -186 27 -260 27 -90 61 -156 116 -227 44 -56 151 -148 172 -148 6 0 2 22 -10 53 -49 121 -60 178 -61 307 -1 88 3 144 15 188 26 99 30 94 -70 91 -49 -2 -109 0 -135 5 -41 7 -49 6 -54 -9z m152 -39 c66 2 71 0 67 -17 -3 -10 -10 -19 -15 -19 -5 0 -9 -17 -8 -37 1 -21 2 -68 1 -105 -1 -61 -3 -68 -21 -68 -16 0 -20 -7 -20 -35 0 -19 5 -35 10 -35 6 0 10 -13 10 -30 0 -19 5 -30 14 -30 8 0 16 -7 20 -15 3 -9 0 -15 -9 -15 -9 0 -16 -10 -16 -22 -1 -21 -2 -21 -6 -3 -3 11 -10 25 -16 30 -20 17 -74 126 -96 195 -12 36 -25 100 -28 144 l-6 78 24 -8 c13 -5 56 -8 95 -8z"></path><path id="pZWpah3zQ" d="M3362 3688 c-19 -25 -60 -114 -81 -178 -26 -79 -30 -232 -7 -296 37 -105 105 -188 180 -219 134 -56 349 -7 481 109 l40 35 -38 1 c-24 0 -40 -5 -43 -15 -4 -8 -12 -15 -18 -15 -7 0 -21 -8 -32 -18 -32 -29 -124 -62 -175 -62 -28 0 -49 -5 -52 -12 -3 -7 -6 -2 -6 10 -1 15 -9 26 -21 29 -11 3 -20 9 -20 14 0 5 -16 9 -35 9 -31 0 -35 -3 -35 -25 0 -29 -2 -30 -39 -10 -86 44 -165 192 -165 305 0 74 65 263 103 303 4 4 58 0 121 -8 146 -19 200 -20 200 -1 0 17 -17 21 -182 41 -153 18 -163 18 -176 3z"></path><path id="pS8wgRtmq" d="M3740 3640 c0 -12 7 -20 18 -20 111 -1 402 -57 402 -78 0 -18 -42 -116 -52 -120 -4 -2 -8 -10 -8 -18 0 -8 -4 -14 -8 -14 -5 0 -22 -30 -37 -67 -16 -38 -35 -72 -42 -76 -7 -4 -13 -24 -13 -44 l0 -36 26 24 c14 13 43 60 64 104 22 44 48 94 60 110 26 39 65 164 54 174 -15 14 -191 50 -319 66 -149 19 -145 19 -145 -5z"></path><path id="pOEcuwQZ0" d="M1782 3000 c-203 -111 -351 -299 -402 -511 -17 -70 -19 -244 -3 -260 9 -9 22 -7 55 8 47 23 102 39 161 48 24 4 37 11 37 22 0 13 -10 14 -67 8 -38 -4 -86 -13 -108 -21 -55 -19 -55 -19 -55 31 0 32 4 45 14 45 7 0 33 30 57 67 50 78 165 224 186 236 7 5 27 35 44 69 17 33 35 66 39 72 5 6 31 38 57 71 26 33 57 68 70 78 13 10 23 29 23 41 0 33 -44 31 -108 -4z"></path><path id="pDyGIY2tT" d="M3376 2912 c-8 -16 -26 -40 -40 -53 -35 -33 -33 -77 6 -153 18 -33 36 -62 40 -64 5 -2 8 -12 8 -23 0 -10 5 -19 10 -19 6 0 10 -11 10 -24 0 -43 10 -56 45 -56 l32 0 7 77 c7 83 13 93 63 93 27 0 32 4 35 28 3 24 7 20 43 -43 45 -80 75 -164 75 -212 0 -27 4 -33 21 -33 20 0 21 4 17 63 -10 117 -68 239 -165 346 -44 49 -59 59 -108 71 -31 7 -58 17 -61 22 -10 15 -23 8 -38 -20z"></path><path id="prZ7rsCrw" d="M1720 2645 c0 -37 23 -50 33 -17 2 9 8 25 12 35 6 14 2 17 -19 17 -23 0 -26 -4 -26 -35z"></path><path id="pmAs9bOgl" d="M3250 2508 c0 -30 13 -58 26 -58 9 0 14 12 14 35 0 28 -4 35 -20 35 -11 0 -20 -6 -20 -12z"></path><path id="pm4GUDEet" d="M3270 2408 c0 -30 13 -58 26 -58 9 0 14 12 14 35 0 28 -4 35 -20 35 -11 0 -20 -6 -20 -12z"></path><path id="pbhEs1kiE" d="M3706 2329 c-8 -94 -3 -104 54 -113 22 -3 40 -8 40 -10 0 -9 -33 -67 -41 -72 -6 -3 -25 8 -43 25 -18 17 -40 31 -49 31 -9 0 -17 7 -17 15 0 9 -9 15 -25 15 -14 0 -25 6 -25 14 0 17 -92 56 -152 63 -39 5 -48 3 -48 -10 0 -9 13 -18 33 -22 17 -4 69 -24 113 -46 65 -31 95 -52 147 -109 l65 -71 26 34 c27 35 76 139 76 161 0 14 -42 26 -86 26 -23 0 -24 3 -24 75 0 66 -2 75 -19 75 -16 0 -19 -11 -25 -81z"></path><path id="p1ECEoQP0O" d="M1640 2314 c0 -33 33 -30 38 4 3 17 -2 22 -17 22 -16 0 -21 -6 -21 -26z"></path><path id="pQcRuxO7g" d="M3310 2306 c0 -13 28 -26 58 -26 6 0 12 9 12 20 0 16 -7 20 -35 20 -23 0 -35 -5 -35 -14z"></path><path id="pjqj6IEkM" d="M3230 2053 c0 -4 9 -14 21 -21 18 -12 20 -11 17 5 -3 17 -38 32 -38 16z"></path><path id="pTNINPdgS" d="M3300 2030 c0 -16 7 -20 35 -20 40 0 49 24 13 34 -38 10 -48 7 -48 -14z"></path><path id="p82j9R1l6" d="M1610 1965 c0 -44 9 -44 38 0 l22 35 -30 0 c-28 0 -30 -3 -30 -35z"></path><path id="pdtHJHNJK" d="M1424 1945 c-17 -22 -38 -53 -47 -70 -46 -91 -77 -268 -77 -447 l0 -127 56 -20 c69 -26 134 -41 134 -31 0 4 -7 25 -16 45 -37 90 -56 304 -34 390 7 28 8 27 9 -12 2 -68 18 -50 30 32 15 102 14 166 -3 191 -8 11 -16 36 -18 54 l-3 34 -31 -39z m-19 -565 c3 -19 9 -43 12 -53 4 -16 1 -18 -19 -12 -44 14 -58 39 -58 107 l0 62 29 -34 c16 -19 32 -51 36 -70z"></path><path id="pLYc0jdUu" d="M3322 1945 c29 -44 38 -44 38 0 0 32 -2 35 -30 35 l-30 0 22 -35z"></path><path id="piPu9lMnn" d="M3500 1943 c0 -28 -6 -46 -21 -59 -19 -17 -21 -25 -14 -89 4 -38 6 -96 6 -127 -1 -46 1 -58 14 -58 10 0 17 14 22 43 7 41 7 41 14 12 20 -91 1 -241 -46 -359 -30 -74 -30 -80 -7 -71 9 4 35 11 56 17 22 5 62 18 89 30 l50 22 -6 150 c-3 83 -13 185 -22 226 -25 112 -87 271 -113 288 -21 14 -22 13 -22 -25z m103 -611 c-16 -11 -18 -11 -21 7 -2 11 5 31 15 45 l18 24 3 -31 c3 -21 -2 -35 -15 -45z"></path><path id="pJYYbF5Gp" d="M1550 1795 c0 -40 24 -49 34 -12 10 37 7 47 -14 47 -16 0 -20 -7 -20 -35z"></path><path id="pXNVWIZ4k" d="M3007 1649 c-26 -15 -20 -29 13 -29 32 0 38 11 17 28 -8 7 -18 7 -30 1z"></path><path id="pdtGehSUO" d="M2380 1600 c0 -16 7 -20 30 -20 36 0 41 25 8 34 -35 9 -38 8 -38 -14z"></path><path id="pDOMGKvcP" d="M2538 1613 c-27 -7 -22 -33 6 -33 20 0 36 16 36 36 0 5 -18 4 -42 -3z"></path><path id="pWNX4sXY3" d="M3450 1555 c0 -40 24 -49 34 -12 10 37 7 47 -14 47 -16 0 -20 -7 -20 -35z"></path><path id="pEsGxUf5h" d="M1470 1568 c0 -30 13 -58 26 -58 9 0 14 12 14 35 0 28 -4 35 -20 35 -11 0 -20 -6 -20 -12z"></path><path id="pFGts2tAh" d="M2520 1499 c0 -24 4 -30 18 -27 10 2 18 14 20 31 3 22 -1 27 -17 27 -17 0 -21 -6 -21 -31z"></path><path id="pzMT85ZJd" d="M2800 1443 c0 -26 4 -33 20 -33 25 0 25 11 0 41 l-19 24 -1 -32z"></path><path id="p176vP6L6p" d="M2125 1433 c-10 -16 -34 -43 -54 -61 l-36 -32 40 2 c33 3 41 7 43 26 2 14 10 22 23 22 15 0 19 7 19 35 0 42 -12 45 -35 8z"></path><path id="p16rOOjFOt" d="M1561 1383 c8 -10 30 -33 49 -51 l35 -33 3 25 c4 33 -38 76 -74 76 -24 0 -25 -2 -13 -17z"></path><path id="p1GaWlayZs" d="M2794 1356 c-7 -39 0 -56 22 -56 10 0 14 12 14 45 0 56 -26 64 -36 11z"></path><path id="p1EBX70TI8" d="M2090 1285 c0 -31 11 -32 47 0 l28 24 -37 1 c-34 0 -38 -3 -38 -25z"></path><path id="p15M3s60B1" d="M1715 1240 c10 -11 29 -20 42 -20 16 0 23 6 23 20 0 17 -7 20 -42 20 -40 0 -41 0 -23 -20z"></path><path id="pnKfAiSv3" d="M1850 1240 c0 -21 16 -25 58 -14 39 11 27 34 -18 34 -33 0 -40 -3 -40 -20z"></path><path id="pOy532Dom" d="M3050 1246 c0 -7 10 -16 23 -20 41 -11 57 -7 57 14 0 17 -7 20 -40 20 -27 0 -40 -4 -40 -14z"></path><path id="pnAlXMU2a" d="M3180 1240 c0 -24 32 -27 54 -4 22 22 21 24 -19 24 -28 0 -35 -4 -35 -20z"></path><path id="pF2BHnJ0T" d="M2278 1049 c-63 -46 -266 -88 -425 -89 -46 0 -83 -4 -83 -8 0 -5 11 -19 25 -32 14 -13 25 -18 25 -12 0 8 23 12 68 12 81 1 250 23 312 41 25 7 64 23 87 36 38 21 54 23 191 23 138 0 152 -2 200 -25 29 -14 60 -25 69 -26 10 0 34 -7 53 -14 l35 -13 -37 -1 c-58 -1 -68 -9 -68 -51 0 -42 -4 -39 93 -56 34 -6 37 -9 37 -40 0 -32 2 -34 35 -34 31 0 35 3 35 26 0 19 4 24 18 20 9 -3 40 -11 67 -17 56 -14 167 -58 148 -59 -22 0 -14 -28 10 -33 36 -9 177 -20 177 -14 0 12 -110 76 -174 101 -38 15 -138 45 -224 67 -85 21 -157 41 -159 43 -10 10 133 18 251 15 69 -2 126 -2 126 1 0 3 -12 13 -26 23 -16 12 -62 23 -137 33 -136 17 -224 37 -297 69 -50 22 -72 24 -232 27 -153 3 -180 1 -200 -13z"></path><path id="p1EXdVuXPO" d="M1866 849 c40 -45 186 -151 266 -193 168 -90 360 -150 513 -162 92 -8 94 -11 -25 83 -36 28 -85 72 -110 98 l-45 47 35 -6 c120 -20 172 -26 230 -26 78 0 110 8 110 26 0 11 -23 14 -107 14 -60 0 -139 7 -178 15 -38 8 -82 15 -97 15 -25 0 -28 -3 -28 -35 0 -47 59 -115 100 -115 24 0 29 -5 32 -27 2 -19 10 -29 28 -34 25 -7 25 -7 -3 -8 -73 -3 -311 84 -452 164 -43 25 -82 45 -87 45 -4 0 -8 5 -8 10 0 6 -8 10 -19 10 -10 0 -21 9 -24 20 -3 12 -14 20 -26 20 -12 0 -21 6 -21 13 0 24 -35 47 -70 47 -33 0 -33 0 -14 -21z"></path><path id="pPxykzdNT" d="M2330 755 c0 -33 2 -35 35 -35 33 0 35 2 35 35 0 33 -2 35 -35 35 -33 0 -35 -2 -35 -35z"></path></g></g><g id="l6zRpBJavSoF8sQrSy30eUB" fill="rgb(21,93,163)" style="transform: none;"><g style="transform: none;"><path id="pjb4d2yGm" d="M305 4090 c-8 -26 -55 -70 -75 -70 -13 -1 -13 -2 0 -9 8 -5 43 -4 79 2 47 8 66 8 68 0 2 -6 13 -9 24 -6 17 5 15 8 -13 22 -18 9 -42 31 -55 49 -20 30 -22 31 -28 12z"></path><path id="pj6uKDur2" d="M307 3930 c3 -11 7 -20 8 -20 1 0 5 9 8 20 3 12 0 20 -8 20 -8 0 -11 -8 -8 -20z"></path><path id="pnUDn68sm" d="M1585 3861 c-9 -29 13 -188 36 -261 29 -91 72 -168 131 -234 43 -48 126 -116 142 -116 3 0 -5 24 -18 53 -72 162 -82 352 -30 545 7 23 6 24 -72 21 -44 -1 -94 2 -111 6 -29 7 -33 5 -33 -14 0 -13 6 -21 18 -21 15 0 17 -13 17 -134 l1 -133 -18 70 c-10 40 -21 109 -25 154 -4 58 -10 83 -19 83 -7 0 -15 -9 -19 -19z"></path><path id="paJDM5ekm" d="M3356 3661 c-29 -48 -62 -131 -82 -211 -45 -180 45 -394 189 -448 67 -25 206 -35 193 -14 -3 5 7 7 22 5 33 -5 104 17 109 34 3 9 -16 11 -70 10 -107 -3 -160 27 -209 118 -61 112 21 290 196 425 74 57 75 80 4 80 -29 1 -115 9 -191 19 l-139 18 -22 -36z"></path><path id="pxluPcKoV" d="M3800 3630 c0 -16 7 -20 35 -20 40 0 49 24 13 34 -38 10 -48 7 -48 -14z"></path><path id="pOxlS9alk" d="M3890 3621 c0 -15 6 -21 23 -21 12 0 46 -3 75 -6 43 -6 52 -4 52 9 0 16 -16 21 -102 33 -44 6 -48 5 -48 -15z"></path><path id="p1DJNlC0Zq" d="M4151 3558 c2 -56 -13 -118 -27 -118 -8 0 -14 -7 -14 -15 0 -8 -4 -15 -10 -15 -5 0 -10 -16 -10 -35 0 -19 4 -35 8 -35 12 0 70 100 88 152 20 61 16 92 -14 96 -19 3 -22 -1 -21 -30z"></path><path id="pDsRwiLg0" d="M4020 3250 c0 -11 -7 -20 -15 -20 -8 0 -15 -7 -15 -15 0 -8 -5 -15 -11 -15 -6 0 -17 -6 -25 -14 -8 -8 -14 -19 -14 -25 0 -6 -7 -11 -15 -11 -8 0 -15 -7 -15 -15 0 -8 -9 -15 -20 -15 -13 0 -20 -7 -20 -20 0 -16 -7 -20 -30 -20 -25 0 -30 -4 -30 -25 0 -14 4 -25 8 -25 10 0 118 74 151 104 32 28 101 115 101 127 0 5 -11 9 -25 9 -18 0 -25 -5 -25 -20z"></path><path id="pCO4DKp07" d="M1808 3003 c-10 -2 -18 -9 -18 -14 0 -5 -3 -8 -7 -7 -12 4 -58 -31 -51 -38 4 -3 24 7 45 22 44 32 59 44 53 43 -3 -1 -13 -3 -22 -6z"></path><path id="pjflpLgMO" d="M1808 2965 c-24 -25 -55 -63 -69 -85 -13 -22 -30 -40 -38 -40 -8 0 -12 -3 -8 -6 3 -4 0 -19 -8 -35 -20 -37 -19 -39 8 -39 24 0 47 33 47 65 0 8 7 15 15 15 8 0 15 8 15 19 0 10 9 21 20 24 14 3 20 14 20 31 0 19 5 26 19 26 14 0 21 9 26 31 4 17 5 32 3 35 -3 2 -25 -16 -50 -41z"></path><path id="ptlYuP4H4" d="M3400 2931 c0 -6 -6 -11 -13 -11 -7 0 -24 -18 -37 -40 -14 -22 -31 -40 -37 -40 -21 0 -16 -73 7 -98 11 -12 20 -28 20 -37 0 -8 5 -15 10 -15 6 0 10 -6 10 -14 0 -8 3 -16 8 -18 4 -1 18 -36 31 -76 15 -46 32 -79 45 -87 43 -29 166 -209 166 -245 0 -5 -13 -10 -30 -10 -16 0 -30 -3 -30 -7 0 -5 25 -24 56 -43 31 -19 78 -59 105 -88 45 -49 49 -51 59 -32 6 11 7 20 3 20 -4 0 0 5 9 11 16 9 68 107 68 128 0 5 -21 12 -47 16 -68 10 -70 13 -61 97 9 81 3 159 -18 232 -15 53 -73 164 -108 207 -11 15 -30 39 -40 54 -20 27 -76 62 -76 48 0 -5 -4 -3 -8 4 -4 6 -20 15 -36 19 -24 6 -27 4 -24 -12 2 -14 10 -18 31 -16 27 3 34 -4 40 -43 1 -11 6 -25 10 -31 7 -13 -13 -24 -44 -24 -12 0 -20 -9 -24 -27 -3 -16 -9 -40 -14 -55 -7 -20 -5 -30 5 -39 19 -15 18 -40 -1 -33 -8 4 -15 14 -15 24 0 10 -3 20 -7 22 -12 5 -65 108 -56 108 4 0 2 4 -6 9 -16 10 -6 31 15 31 8 0 13 6 12 13 -2 6 3 11 10 9 8 -1 11 2 8 7 -4 5 -1 15 6 23 17 17 22 55 8 63 -5 3 -10 1 -10 -4z"></path><path id="ppe2dxOgj" d="M1635 2716 c-63 -68 -120 -141 -174 -221 -34 -49 -67 -90 -74 -90 -7 0 -13 -17 -15 -37 -3 -34 -1 -38 21 -38 17 0 29 10 44 38 11 20 29 53 39 72 10 19 22 37 27 38 4 2 7 10 7 17 0 7 7 15 15 19 8 3 15 12 15 20 0 7 7 16 15 20 8 3 15 14 15 25 0 10 9 21 21 24 11 3 23 15 26 26 3 12 13 21 23 21 21 0 30 19 30 61 0 34 -8 35 -35 5z"></path><path id="psEY1Y8lh" d="M1734 2690 c-4 -22 -10 -40 -15 -40 -5 0 -9 -16 -9 -35 0 -42 16 -46 32 -7 6 15 19 46 29 69 24 54 24 53 -6 53 -21 0 -26 -6 -31 -40z"></path><path id="pF9WgXu95" d="M3201 2648 c25 -63 28 -68 40 -68 12 0 11 50 -2 89 -8 23 -17 31 -35 31 l-24 0 21 -52z"></path><path id="ppAiqzjhv" d="M1666 2489 c-20 -88 -20 -119 -2 -119 9 0 21 30 35 88 26 105 25 102 2 102 -15 0 -22 -14 -35 -71z"></path><path id="p4v0jVSU7" d="M1380 2448 c0 -19 2 -20 10 -8 13 19 13 30 0 30 -5 0 -10 -10 -10 -22z"></path><path id="p19UbmOOgB" d="M3260 2458 c0 -30 13 -58 26 -58 9 0 14 12 14 35 0 28 -4 35 -20 35 -11 0 -20 -6 -20 -12z"></path><path id="pe3VUQiUy" d="M1640 2325 c0 -37 22 -49 34 -19 12 32 6 54 -14 54 -16 0 -20 -7 -20 -35z"></path><path id="pduQjcefJ" d="M1500 2294 c0 -20 4 -25 16 -20 9 3 24 6 35 6 12 0 19 7 19 20 0 16 -7 20 -35 20 -31 0 -35 -3 -35 -26z"></path><path id="puTN9BaSO" d="M1371 2273 c0 -10 3 -26 7 -35 6 -15 11 -15 40 -3 36 16 43 35 12 35 -11 0 -20 5 -20 10 0 6 -9 10 -20 10 -13 0 -20 -6 -19 -17z"></path><path id="pxiLd3fAY" d="M3472 2268 c3 -7 19 -18 36 -25 31 -13 32 -12 32 12 0 22 -4 25 -36 25 -23 0 -34 -4 -32 -12z"></path><path id="p1AqKbiH7A" d="M1690 2040 c0 -18 2 -19 20 -8 11 7 20 16 20 20 0 5 -9 8 -20 8 -13 0 -20 -7 -20 -20z"></path><path id="pAC88TiZe" d="M3279 2004 c28 -32 51 -62 51 -66 0 -4 5 -8 11 -8 7 0 10 15 7 40 -2 22 0 40 4 40 5 0 8 6 8 14 0 14 -10 17 -94 31 l-39 6 52 -57z"></path><path id="p2ERL107O" d="M1598 2043 c-33 -8 -20 -33 17 -33 28 0 35 4 35 20 0 20 -14 23 -52 13z"></path><path id="ps57TUdEm" d="M3370 2014 c0 -21 5 -24 35 -24 22 0 35 5 35 13 0 8 -16 18 -35 24 -33 11 -35 10 -35 -13z"></path><path id="paGJWaJ93" d="M1450 1970 c-21 -19 -30 -36 -26 -46 3 -9 6 -20 6 -25 0 -5 7 -9 15 -9 9 0 15 9 15 25 0 16 6 25 15 25 10 0 15 10 15 30 0 17 -2 30 -4 30 -2 0 -18 -14 -36 -30z"></path><path id="pi2eKnO1f" d="M3460 1975 c0 -15 6 -25 14 -25 16 0 26 -21 26 -56 0 -36 24 -29 39 11 13 38 11 44 -39 78 -33 23 -40 22 -40 -8z"></path><path id="piiCOjDi0" d="M1576 1928 c-9 -36 -7 -78 4 -78 9 0 50 80 50 96 0 2 -11 4 -24 4 -16 0 -26 -7 -30 -22z"></path><path id="pYxleKbf2" d="M3361 1858 c4 -18 11 -50 14 -70 4 -26 11 -38 22 -38 13 0 15 8 9 53 -3 28 -6 60 -6 70 0 11 -8 17 -24 17 -22 0 -23 -2 -15 -32z"></path><path id="ptZjC1xUW" d="M1454 1800 c-2 -61 1 -70 16 -70 13 0 19 11 24 46 11 81 8 94 -16 94 -22 0 -23 -5 -24 -70z"></path><path id="pb4PMkPHG" d="M1546 1788 c-10 -86 -8 -98 14 -98 17 0 20 7 20 44 0 24 3 58 6 75 6 26 4 31 -13 31 -17 0 -21 -9 -27 -52z"></path><path id="p15s4XUynL" d="M3470 1700 c0 -61 3 -80 14 -80 16 0 26 30 26 80 0 50 -10 80 -26 80 -11 0 -14 -19 -14 -80z"></path><path id="p1EgSEnlc0" d="M3375 1653 c-3 -21 -10 -54 -15 -74 -14 -51 -13 -59 9 -59 21 0 27 15 37 108 6 53 4 62 -9 62 -11 0 -18 -12 -22 -37z"></path><path id="pAd1f4ThV" d="M1450 1658 c0 -23 33 -144 47 -170 7 -16 18 -28 23 -28 15 0 12 67 -4 82 -7 8 -16 39 -20 71 -6 47 -11 57 -27 57 -10 0 -19 -5 -19 -12z"></path><path id="p1AVaulIdk" d="M1550 1615 c0 -28 4 -35 20 -35 21 0 24 10 14 48 -10 36 -34 27 -34 -13z"></path><path id="p16yHSV2T7" d="M1907 1643 c-11 -10 -8 -43 3 -43 6 0 10 -7 10 -15 0 -19 14 -19 30 0 17 20 4 65 -19 65 -10 0 -21 -3 -24 -7z"></path><path id="pnEzyUCyf" d="M1820 1574 c0 -27 4 -34 19 -34 13 0 20 -9 25 -30 5 -25 10 -30 35 -30 l30 0 -19 33 c-11 18 -35 47 -55 64 l-35 31 0 -34z"></path><path id="p1fgnTu35" d="M2530 1576 c0 -14 -4 -37 -10 -51 -9 -23 -15 -26 -47 -23 -33 3 -38 7 -41 31 -2 20 -9 27 -24 27 -18 0 -20 -4 -14 -31 3 -17 6 -37 6 -44 0 -16 64 -25 114 -17 29 5 40 12 42 27 1 11 6 39 9 63 6 38 4 42 -14 42 -16 0 -21 -6 -21 -24z"></path><path id="p5kL4YKWL" d="M1308 1530 c-3 -99 -3 -195 1 -208 4 -16 75 -48 132 -61 45 -10 44 -11 24 34 -7 19 -19 62 -26 95 -10 50 -19 67 -59 107 -26 27 -52 57 -58 68 -10 17 -12 12 -14 -35z"></path><path id="pKKn3dK7R" d="M3440 1525 c0 -39 6 -43 26 -17 20 26 17 52 -6 52 -16 0 -20 -7 -20 -35z"></path><path id="pinP6s2qk" d="M3641 1545 c-1 -5 -4 -18 -6 -29 -2 -10 -18 -34 -36 -52 -18 -19 -29 -34 -23 -34 5 -1 0 -8 -11 -18 -11 -9 -20 -26 -20 -37 1 -11 -3 -23 -7 -26 -5 -3 -10 -20 -11 -37 -1 -23 -6 -32 -17 -29 -8 1 -14 11 -12 22 1 12 -6 6 -17 -15 -26 -45 -26 -52 2 -40 12 5 47 16 77 24 92 25 91 23 87 161 -1 66 -4 116 -6 110z"></path><path id="pAfB7IJA6" d="M1610 1455 c0 -24 5 -35 15 -35 8 0 15 -8 15 -18 0 -28 32 -52 69 -52 l33 0 -56 61 c-31 33 -56 64 -56 70 0 5 -4 9 -10 9 -5 0 -10 -16 -10 -35z"></path><path id="pPQhgalpE" d="M2800 1430 c0 -38 2 -40 30 -40 l30 0 -26 40 c-15 22 -28 40 -30 40 -2 0 -4 -18 -4 -40z"></path><path id="p19r4ZerN3" d="M1540 1410 c31 -44 40 -45 40 -6 0 33 -2 36 -31 36 l-30 0 21 -30z"></path><path id="pDQmFj84t" d="M3306 1359 c-18 -19 -26 -39 -24 -55 3 -25 3 -25 44 13 22 21 46 46 54 56 11 15 9 17 -17 17 -21 0 -38 -10 -57 -31z"></path><path id="p1AuSjFExh" d="M2890 1340 c0 -28 3 -30 35 -30 19 0 35 4 35 9 0 5 -16 18 -35 30 l-35 20 0 -29z"></path><path id="pasbLmfPn" d="M2796 1338 c-4 -17 1 -29 20 -45 33 -30 44 -29 44 2 0 16 -6 25 -15 25 -8 0 -15 9 -15 20 0 27 -26 25 -34 -2z"></path><path id="plF7E1UW4" d="M1750 1326 c0 -28 12 -34 86 -42 45 -6 54 -4 54 9 0 11 -13 18 -37 23 -21 4 -53 13 -70 21 -32 13 -33 12 -33 -11z"></path><path id="pKg8iN7tx" d="M1928 1313 c-33 -8 -20 -33 17 -33 28 0 35 4 35 20 0 20 -14 23 -52 13z"></path><path id="ptCpvwnBw" d="M2980 1300 c0 -16 7 -20 35 -20 40 0 49 24 13 34 -38 10 -48 7 -48 -14z"></path><path id="p1BL5IRtIj" d="M3088 1313 c-36 -9 -20 -33 22 -33 33 0 40 3 40 20 0 20 -20 24 -62 13z"></path><path id="p16B0HW5R7" d="M1690 1265 c19 -19 50 -37 68 -41 28 -6 32 -4 32 15 0 13 -6 21 -18 21 -10 0 -24 9 -32 20 -10 13 -26 20 -50 20 l-35 0 35 -35z"></path><path id="puUcPxa81" d="M2070 1275 c0 -30 3 -30 41 -8 38 23 37 33 -6 33 -31 0 -35 -3 -35 -25z"></path><path id="pLJbQ4ad1" d="M2920 1256 c0 -13 28 -26 58 -26 6 0 12 9 12 20 0 16 -7 20 -35 20 -23 0 -35 -5 -35 -14z"></path><path id="pyoMXL2Ct" d="M1820 1240 c0 -21 23 -26 68 -14 41 11 26 34 -23 34 -38 0 -45 -3 -45 -20z"></path><path id="piwqSUtpt" d="M3070 1246 c0 -7 10 -16 23 -20 41 -11 57 -7 57 14 0 17 -7 20 -40 20 -27 0 -40 -4 -40 -14z"></path><path id="p19FIL6d67" d="M3170 1240 c0 -21 10 -24 48 -14 36 10 27 34 -13 34 -28 0 -35 -4 -35 -20z"></path><path id="pww7Hy4HA" d="M2262 1030 c-26 -15 -74 -34 -107 -42 -81 -22 -261 -42 -324 -36 -32 3 -51 1 -51 -5 0 -14 120 -131 127 -124 3 3 33 -10 67 -29 169 -96 374 -174 456 -174 48 0 49 1 52 32 2 18 -3 44 -11 57 -14 22 -14 23 4 17 22 -6 123 -26 136 -26 5 0 9 8 9 18 0 14 -14 20 -70 31 -39 7 -83 10 -99 6 -19 -4 -30 -2 -33 7 -4 10 25 13 146 10 161 -2 460 -24 414 -30 -20 -2 -28 -9 -28 -23 0 -19 6 -20 103 -19 95 2 209 -5 267 -16 25 -5 25 -4 -5 20 -62 52 -325 139 -517 171 -39 6 -49 19 -24 28 18 7 185 23 209 20 9 -2 17 1 17 6 0 6 28 8 62 5 65 -5 76 2 17 11 -19 3 -77 12 -129 19 -116 18 -191 37 -250 65 -39 18 -67 21 -218 23 -170 3 -174 3 -220 -22z"></path><path id="pFty6UeGA" d="M2512 629 c3 -30 7 -34 36 -37 26 -3 32 -7 32 -27 0 -24 -2 -24 -47 -18 -27 3 -50 9 -53 12 -8 11 -115 41 -143 41 -31 0 -35 -15 -8 -29 31 -17 161 -51 251 -66 101 -17 133 -19 125 -5 -6 9 -105 92 -172 144 l-24 19 3 -34z"></path></g></g><g id="l6JtPh5STxglO455zWdZyLQ" fill="rgb(16,108,182)" style="transform: none;"><g style="transform: none;"><path id="pPT74pj8g" d="M300 4075 c-8 -15 -27 -34 -42 -43 l-28 -16 35 -28 c18 -16 37 -38 40 -49 7 -20 8 -19 26 10 10 17 32 39 48 49 l30 18 -33 18 c-17 9 -39 28 -47 42 l-15 25 -14 -26z"></path><path id="p17dvNmFNM" d="M1593 3781 c11 -185 65 -312 191 -448 21 -24 42 -43 47 -43 5 0 -7 26 -26 58 -47 76 -92 194 -104 272 -6 38 -17 67 -26 72 -19 11 -20 68 -1 68 15 0 26 30 26 76 0 27 -4 32 -31 38 -17 3 -43 6 -57 6 l-25 0 6 -99z m64 7 c-2 -13 -4 -5 -4 17 -1 22 1 32 4 23 2 -10 2 -28 0 -40z"></path><path id="pf2VyE0ZT" d="M3664 3601 c-87 -73 -132 -127 -174 -210 -90 -180 -16 -358 162 -388 45 -8 67 -6 111 7 124 38 264 164 323 288 20 42 45 89 56 104 10 15 27 52 38 83 l19 55 -22 0 c-18 0 -26 -10 -40 -49 -9 -27 -17 -58 -17 -70 0 -14 -6 -21 -19 -21 -18 0 -51 -61 -51 -95 0 -8 -4 -15 -10 -15 -5 0 -10 -16 -10 -35 0 -29 -4 -35 -21 -35 -22 0 -89 -60 -89 -79 0 -6 -9 -11 -20 -11 -11 0 -20 -7 -20 -15 0 -8 -9 -15 -19 -15 -11 0 -26 -6 -33 -13 -7 -7 -29 -19 -48 -27 -19 -8 -38 -18 -42 -24 -10 -14 -158 14 -158 30 0 8 -11 14 -25 14 -20 0 -25 5 -25 25 0 14 -3 25 -8 25 -10 0 -32 74 -32 111 0 34 19 108 32 124 5 6 21 29 36 52 33 50 128 153 141 153 5 0 17 10 25 22 14 19 24 22 76 20 47 -2 60 1 60 12 0 14 -14 19 -90 31 -32 5 -42 0 -106 -54z"></path><path id="pe5tkGFMp" d="M3870 3620 c0 -17 7 -20 40 -20 45 0 57 23 18 34 -42 11 -58 7 -58 -14z"></path><path id="p1BoQ4JO5E" d="M3960 3613 c0 -15 13 -21 63 -32 106 -23 147 -25 147 -8 0 14 -71 37 -167 52 -38 6 -43 4 -43 -12z"></path><path id="pUUcG2kcC" d="M1750 2715 c0 -53 13 -46 48 28 2 4 -8 7 -22 7 -23 0 -26 -4 -26 -35z"></path><path id="p0EA5vnjO" d="M1635 2700 c-4 -11 -10 -18 -14 -15 -16 9 -170 -200 -220 -297 -8 -16 -18 -28 -23 -28 -9 0 -11 -74 -2 -107 8 -28 19 -29 69 -3 22 11 47 20 57 20 9 0 19 4 22 9 3 5 15 7 26 4 18 -5 20 0 20 41 0 44 -1 46 -29 46 l-30 0 46 88 c25 48 50 90 56 94 15 9 47 98 47 130 0 33 -16 45 -25 18z"></path><path id="p17IwIQRT2" d="M3380 2646 c0 -32 3 -36 25 -36 24 0 25 1 12 32 -19 46 -37 48 -37 4z"></path><path id="p77J4A3dP" d="M3410 2561 c0 -38 9 -61 24 -61 6 0 17 -9 24 -20 7 -11 19 -20 27 -20 9 0 15 -9 15 -21 0 -12 8 -23 20 -26 11 -3 20 -13 20 -23 0 -10 3 -20 8 -22 4 -1 22 -36 41 -77 25 -54 30 -75 21 -81 -8 -5 -4 -14 16 -29 38 -30 45 -27 38 22 -14 92 -94 229 -186 319 -21 21 -38 44 -38 53 0 8 -7 15 -15 15 -10 0 -15 -10 -15 -29z"></path><path id="p82Z4SJLZ" d="M3450 2303 c0 -37 2 -39 58 -61 31 -13 63 -25 70 -29 8 -3 12 4 12 21 0 23 -4 26 -35 26 -34 0 -35 1 -35 40 0 39 -1 40 -35 40 -34 0 -35 -1 -35 -37z"></path><path id="pIaD3bpeV" d="M3360 2296 c0 -13 28 -26 58 -26 6 0 12 9 12 20 0 16 -7 20 -35 20 -23 0 -35 -5 -35 -14z"></path><path id="pcjOvca3q" d="M3255 2032 c27 -26 30 -27 33 -10 4 24 5 23 -33 32 l-30 7 30 -29z"></path><path id="pTB1865X5" d="M1650 2013 l0 -37 35 34 c19 19 35 35 35 37 0 2 -16 3 -35 3 -34 0 -35 -1 -35 -37z"></path><path id="pKPHzrA2G" d="M3420 1995 c0 -22 4 -25 35 -25 43 0 45 14 5 35 -38 20 -40 19 -40 -10z"></path><path id="pVR1dwKBI" d="M1430 1904 c0 -9 9 -28 19 -43 16 -22 18 -34 11 -71 -13 -64 -12 -70 9 -70 14 0 20 10 25 46 9 69 8 84 -9 84 -10 0 -15 11 -15 35 0 28 -4 35 -20 35 -12 0 -20 -7 -20 -16z"></path><path id="pQvHACqD7" d="M3490 1890 c0 -13 -7 -20 -20 -20 -24 0 -24 -8 -8 -112 10 -64 16 -78 30 -78 21 0 21 4 7 87 -11 60 -10 66 10 87 27 29 27 56 1 56 -13 0 -20 -7 -20 -20z"></path><path id="pMQis4XrU" d="M1540 1725 c0 -48 3 -55 19 -55 17 0 19 7 19 55 -1 47 -3 55 -19 55 -16 0 -19 -8 -19 -55z"></path><path id="pMcdCwtfJ" d="M1450 1668 c0 -30 13 -58 26 -58 9 0 14 12 14 35 0 28 -4 35 -20 35 -11 0 -20 -6 -20 -12z"></path><path id="pYH4Vw0T5" d="M3376 1658 c-10 -38 -7 -48 14 -48 16 0 20 7 20 35 0 40 -24 49 -34 13z"></path><path id="pv55okaaq" d="M1580 1505 c0 -31 3 -35 26 -35 21 0 25 3 19 18 -4 9 -10 25 -12 35 -10 32 -33 19 -33 -18z"></path><path id="p12qbc8Otc" d="M2126 1434 c-13 -34 -7 -64 14 -64 21 0 25 16 14 58 -7 26 -19 29 -28 6z"></path><path id="pVMYsCoq0" d="M2033 1348 c-42 -26 -42 -38 2 -38 32 0 35 2 35 30 0 17 -1 30 -2 29 -2 0 -18 -10 -35 -21z"></path><path id="pwkIIiATz" d="M1810 1300 c0 -16 7 -20 35 -20 40 0 49 24 13 34 -38 10 -48 7 -48 -14z"></path><path id="p1DJTTPvuy" d="M2100 1305 c0 -9 -9 -15 -25 -15 -18 0 -25 -5 -25 -20 0 -27 22 -25 70 5 48 30 51 45 10 45 -20 0 -30 -5 -30 -15z"></path><path id="p1GMHT9hKI" d="M3183 1263 c-15 -3 -23 -12 -23 -25 0 -18 4 -19 38 -13 20 4 37 8 37 8 1 1 7 10 14 20 12 15 11 17 -15 16 -16 -1 -39 -4 -51 -6z"></path><path id="pV5KXMGl3" d="M1730 1246 c0 -7 10 -16 23 -20 41 -11 57 -7 57 14 0 17 -7 20 -40 20 -27 0 -40 -4 -40 -14z"></path><path id="pvP7zjFbU" d="M1794 927 c19 -27 128 -126 205 -184 138 -104 393 -207 591 -238 55 -9 105 -15 111 -13 5 2 -30 36 -78 76 -85 70 -88 71 -91 47 -4 -31 13 -55 39 -55 11 0 19 -4 19 -10 0 -13 -8 -13 -66 5 -27 8 -61 15 -76 15 -14 0 -28 4 -30 9 -1 6 -25 16 -53 23 -27 7 -52 15 -55 18 -10 10 -81 40 -95 40 -8 0 -15 5 -15 10 0 6 -9 10 -20 10 -11 0 -20 5 -20 10 0 6 11 10 25 10 14 0 25 -6 25 -13 0 -14 61 -37 99 -37 11 0 21 -4 21 -8 0 -13 71 -32 119 -32 40 0 41 1 41 35 0 21 -8 43 -18 53 -10 10 -21 26 -25 36 -4 9 -17 21 -29 26 -18 7 -10 9 35 9 41 1 57 5 57 15 0 7 -10 16 -22 20 -34 9 -136 7 -142 -2 -3 -4 20 -39 49 -78 40 -51 50 -70 39 -72 -28 -6 -206 59 -327 119 -64 32 -157 85 -205 119 -93 64 -135 79 -108 37z m326 -202 c0 -8 -7 -15 -15 -15 -8 0 -15 7 -15 15 0 8 7 15 15 15 8 0 15 -7 15 -15z"></path><path id="p1CDxxmdVE" d="M2730 780 c0 -18 7 -20 65 -20 49 0 65 3 65 14 0 17 -31 26 -87 26 -36 0 -43 -3 -43 -20z"></path><path id="pXn9VwaJG" d="M2880 771 c0 -17 8 -21 48 -24 46 -3 46 -3 -10 -5 -51 -2 -58 -5 -58 -22 0 -17 7 -20 53 -20 66 0 97 9 97 26 0 11 7 13 28 8 15 -4 28 -11 30 -15 4 -10 40 -16 134 -23 51 -4 67 -2 72 9 3 9 0 12 -9 9 -8 -3 -39 3 -69 15 -71 26 -163 47 -248 56 -64 6 -68 5 -68 -14z"></path><path id="pRSU8J8RT" d="M2460 746 c0 -14 43 -28 128 -41 37 -6 42 -5 42 12 0 16 -12 22 -64 31 -82 16 -106 15 -106 -2z"></path></g></g><g id="l1oQisPkyenuJrY1wiSPNxp" fill="rgb(192,135,2)" style="transform: none;"><g style="transform: none;"><path id="pfImSlaaf" d="M1940 3851 c-12 -24 -40 -138 -40 -168 0 -16 6 -23 20 -23 13 0 20 7 20 20 0 29 29 133 40 144 9 9 97 -3 190 -25 19 -4 65 -11 103 -15 57 -6 67 -4 67 9 0 17 -7 19 -146 42 -50 9 -106 20 -125 25 -58 17 -117 13 -129 -9z"></path><path id="p8R6mnfrg" d="M2418 3813 c-10 -2 -18 -11 -18 -19 0 -10 13 -14 45 -14 25 0 132 -12 238 -26 105 -14 224 -29 262 -34 175 -20 270 -33 273 -35 2 -2 -5 -20 -16 -42 -42 -83 -55 -152 -56 -293 0 -117 3 -143 23 -195 30 -81 69 -145 86 -145 8 0 15 -7 15 -16 0 -15 22 -44 34 -44 19 0 56 -55 56 -83 l1 -32 29 35 c37 42 38 58 4 70 -43 17 -128 111 -162 180 -79 161 -67 366 32 542 24 42 24 47 8 52 -9 3 -107 17 -217 31 -110 14 -287 37 -393 50 -194 25 -212 27 -244 18z"></path><path id="pBJsr5cYP" d="M1900 3518 c0 -39 29 -145 61 -229 l31 -82 87 7 86 7 -123 -76 c-84 -52 -148 -102 -205 -158 -81 -80 -82 -82 -53 -85 23 -3 37 5 72 39 24 24 44 38 44 32 0 -6 -7 -13 -15 -17 -8 -3 -15 -10 -15 -15 0 -6 -11 -22 -25 -37 -14 -15 -25 -31 -25 -36 0 -5 -9 -18 -20 -30 -11 -12 -20 -30 -20 -40 0 -10 -4 -18 -10 -18 -5 0 -10 -16 -10 -35 0 -19 4 -35 9 -35 5 0 24 26 42 58 99 176 240 320 407 417 70 40 84 54 136 129 54 80 106 136 126 136 17 0 45 -39 83 -114 38 -75 38 -76 113 -111 175 -80 355 -256 466 -452 16 -29 34 -53 39 -53 15 0 10 67 -6 84 -8 8 -15 19 -15 25 0 6 -4 11 -10 11 -5 0 -10 7 -10 15 0 8 -4 15 -10 15 -5 0 -10 7 -10 15 0 8 -4 15 -10 15 -5 0 -10 7 -10 15 0 9 -7 18 -15 21 -8 4 -15 12 -15 20 0 8 -9 19 -20 26 -11 7 -20 17 -20 22 0 13 -124 136 -137 136 -7 0 -13 4 -13 10 0 13 -131 100 -152 100 -9 0 -18 3 -20 8 -1 4 -19 14 -39 23 -27 13 -42 31 -67 82 -48 96 -78 127 -125 127 -46 0 -90 -41 -167 -155 -51 -76 -110 -123 -110 -89 0 15 -10 16 -83 10 -97 -8 -92 -11 -129 89 -40 111 -48 140 -48 168 0 20 -5 27 -20 27 -14 0 -20 -7 -20 -22z"></path><path id="p13oJMHodw" d="M1697 2812 c-26 -42 -47 -81 -47 -85 0 -4 11 -7 25 -7 20 0 25 5 25 25 0 15 6 25 15 25 8 0 17 11 21 25 3 14 10 25 15 25 5 0 9 16 9 35 0 19 -4 35 -8 35 -4 0 -29 -35 -55 -78z"></path><path id="pgry03YJ5" d="M3310 2775 c0 -19 5 -35 10 -35 6 0 10 -7 10 -15 0 -8 5 -15 10 -15 6 0 10 -5 10 -12 0 -6 12 -42 28 -80 19 -47 32 -68 45 -68 26 0 21 32 -20 118 -40 86 -74 142 -85 142 -5 0 -8 -16 -8 -35z"></path><path id="pDvHvowzp" d="M1808 1999 c-50 -13 -87 -49 -120 -117 -31 -62 -33 -74 -33 -167 0 -87 4 -107 26 -155 48 -103 132 -170 211 -170 72 1 161 68 194 146 23 55 16 61 -14 13 -35 -54 -50 -67 -90 -75 -26 -5 -36 -1 -62 25 -18 17 -33 31 -36 31 -2 0 -4 -15 -4 -34 0 -25 7 -40 23 -52 22 -16 21 -16 -16 -11 -53 8 -97 42 -97 75 0 15 -10 47 -21 72 -27 61 -27 143 1 204 22 45 51 79 37 41 -21 -53 -29 -114 -24 -173 8 -93 13 -102 53 -102 19 0 34 2 34 5 0 2 -11 15 -25 29 -21 21 -25 34 -25 87 0 79 15 128 53 174 28 35 32 37 82 33 61 -3 61 5 3 58 -66 61 -103 76 -150 63z"></path><path id="pbm5N3juY" d="M3055 1983 c-36 -18 -83 -61 -97 -86 -9 -17 -7 -18 21 -12 39 8 98 -19 121 -58 10 -16 23 -49 30 -73 15 -52 40 -60 40 -11 -1 17 -7 50 -15 72 l-14 40 20 -24 c15 -18 26 -22 55 -19 32 4 36 2 41 -24 4 -19 12 -28 24 -28 28 0 24 39 -9 113 -51 112 -134 154 -217 110z m65 -108 c10 -12 10 -15 -4 -15 -9 0 -16 7 -16 15 0 8 2 15 4 15 2 0 9 -7 16 -15z"></path><path id="pB1x9IyCP" d="M3260 1668 c0 -26 -60 -158 -71 -158 -5 0 -9 -7 -9 -15 0 -8 -7 -15 -15 -15 -9 0 -18 -6 -21 -14 -3 -7 -23 -19 -45 -26 -26 -9 -39 -19 -39 -32 0 -24 23 -23 77 3 60 29 114 95 141 170 28 81 29 109 2 109 -14 0 -20 -7 -20 -22z"></path><path id="pzUqqXjR1" d="M3128 1615 l-16 -35 29 0 c26 0 29 3 29 35 0 22 -5 35 -13 35 -7 0 -20 -16 -29 -35z"></path><path id="pjJYEOauJ" d="M2850 1566 c0 -48 131 -176 181 -176 22 0 27 35 7 43 -10 4 -10 6 0 6 7 1 12 15 12 39 -1 35 -2 36 -15 18 -32 -43 -127 -10 -160 55 -17 32 -25 37 -25 15z"></path></g></g><g id="l6aGGLO1VphEbT3nrinXc7P" fill="rgb(15,130,199)" style="transform: none;"><g style="transform: none;"><path id="p15tKmVQM" d="M286 4054 c-15 -19 -35 -34 -44 -34 -11 0 -5 -7 16 -20 18 -11 39 -34 46 -51 l13 -31 13 32 c7 18 28 39 49 50 24 13 30 19 17 20 -10 0 -33 15 -51 34 l-32 34 -27 -34z"></path><path id="pVjni4Ur6" d="M1623 3783 c3 -55 15 -129 27 -168 30 -95 125 -275 158 -300 15 -10 22 -13 15 -5 -27 35 -74 132 -99 206 -24 69 -28 96 -29 214 -2 133 -3 135 -26 141 -53 15 -52 16 -46 -88z"></path><path id="pUxxj3U3G" d="M3679 3608 c-64 -49 -139 -134 -175 -198 -34 -60 -57 -153 -49 -199 22 -129 93 -196 218 -208 61 -5 70 -3 141 32 47 23 103 63 147 103 76 70 109 115 128 174 7 20 22 49 33 63 25 32 78 159 78 186 0 12 -9 21 -27 24 -16 4 -53 12 -83 20 -50 13 -287 45 -336 45 -11 0 -45 -19 -75 -42z"></path><path id="pUUnmFH0k" d="M1751 2894 c-27 -35 -26 -44 4 -44 22 0 25 4 25 35 0 19 -2 35 -4 35 -3 0 -14 -12 -25 -26z"></path><path id="p7MM7H9U1" d="M1690 2794 c-25 -31 -42 -65 -71 -139 -25 -63 -49 -95 -49 -65 0 6 4 9 8 6 5 -3 13 13 19 35 5 21 9 39 7 39 -1 0 -24 -27 -49 -60 -25 -33 -42 -60 -36 -60 5 0 13 5 16 10 3 6 13 10 20 10 10 0 2 -25 -28 -82 -23 -46 -51 -103 -61 -128 -10 -25 -25 -60 -33 -78 -8 -19 -13 -35 -11 -37 1 -1 26 6 55 17 45 18 52 24 56 52 l4 31 1 -32 c2 -35 13 -39 60 -27 30 9 28 34 -3 34 -28 0 -30 9 -14 78 27 119 44 177 52 183 5 4 12 27 14 53 4 29 10 46 19 46 8 0 17 12 20 28 4 15 11 30 16 33 5 3 8 21 6 39 -3 31 -4 31 -18 14z"></path><path id="p171zFwLFn" d="M3170 2725 c0 -14 32 -65 40 -65 6 0 10 16 10 35 0 31 -3 35 -25 35 -14 0 -25 -2 -25 -5z"></path><path id="p14DAuUnV6" d="M3240 2548 c0 -30 13 -58 26 -58 9 0 14 12 14 35 0 28 -4 35 -20 35 -11 0 -20 -6 -20 -12z"></path><path id="pr2uPLd3t" d="M3434 2472 c3 -51 9 -110 12 -132 6 -36 4 -40 -15 -40 -37 0 -24 -29 17 -36 41 -7 137 -52 184 -86 l31 -21 -5 47 c-9 79 -77 201 -158 286 l-72 75 6 -93z"></path><path id="pqbGCzrhO" d="M3270 2418 c0 -30 13 -58 26 -58 9 0 14 12 14 35 0 28 -4 35 -20 35 -11 0 -20 -6 -20 -12z"></path><path id="p3iDnVnDv" d="M3320 2306 c0 -13 28 -26 58 -26 6 0 12 9 12 20 0 16 -7 20 -35 20 -23 0 -35 -5 -35 -14z"></path><path id="phDnHM8yI" d="M3230 2056 c0 -1 9 -9 20 -19 15 -13 20 -14 20 -3 0 7 -9 16 -20 19 -11 3 -20 4 -20 3z"></path><path id="pJ7wfDKBn" d="M1558 2029 c-29 -16 -21 -29 17 -29 28 0 35 4 35 20 0 22 -24 26 -52 9z"></path><path id="p1Hc72vDAZ" d="M3340 2020 c0 -16 7 -20 35 -20 39 0 46 14 16 30 -31 16 -51 12 -51 -10z"></path><path id="pO6R82sKL" d="M1473 1985 l-28 -24 38 -1 c33 0 37 3 37 25 0 31 -11 32 -47 0z"></path><path id="pJjhAOaRh" d="M3440 1984 c0 -15 6 -24 15 -24 8 0 15 -4 15 -10 0 -5 9 -10 20 -10 13 0 20 -7 20 -20 0 -25 16 -26 30 -1 8 16 4 24 -26 49 -51 42 -74 47 -74 16z"></path><path id="pY7PK1WhA" d="M1430 1904 c0 -13 44 -84 52 -84 9 0 11 51 2 74 -6 15 -54 24 -54 10z"></path><path id="p1BK6wIuFH" d="M1556 1863 c-9 -59 -7 -83 8 -83 8 0 19 23 28 60 14 60 14 60 -7 60 -18 0 -24 -7 -29 -37z"></path><path id="p10IfjBYYQ" d="M3450 1825 c0 -29 4 -35 21 -35 15 0 20 5 17 23 -2 12 4 27 12 34 13 10 10 12 -17 13 -31 0 -33 -2 -33 -35z"></path><path id="pb45PBlwc" d="M1456 1758 c-10 -38 -7 -48 14 -48 16 0 20 7 20 35 0 40 -24 49 -34 13z"></path><path id="p13GpWT6KD" d="M3470 1690 c0 -36 4 -50 14 -50 17 0 28 42 20 75 -11 46 -34 30 -34 -25z"></path><path id="p1FHeBw0cf" d="M1540 1690 c0 -33 3 -40 20 -40 21 0 25 16 14 58 -11 39 -34 27 -34 -18z"></path><path id="phUKCxdwN" d="M1450 1678 c0 -30 13 -58 26 -58 9 0 14 12 14 35 0 28 -4 35 -20 35 -11 0 -20 -6 -20 -12z"></path><path id="p16N8YUKM4" d="M2994 1636 c-10 -25 0 -61 18 -64 20 -4 43 41 34 65 -7 17 -45 17 -52 -1z"></path><path id="paq6vVe8Z" d="M1550 1605 c0 -19 5 -35 10 -35 6 0 10 -16 10 -35 0 -29 4 -35 21 -35 17 0 20 4 16 23 -3 12 -11 43 -17 70 -14 57 -40 65 -40 12z"></path><path id="pfHrLM3VM" d="M3456 1608 c-19 -73 11 -110 32 -39 16 52 15 61 -7 61 -11 0 -21 -9 -25 -22z"></path><path id="pQLdAlma4" d="M3113 1591 c-18 -15 -33 -31 -33 -34 0 -4 16 -7 35 -7 33 0 35 2 35 35 0 19 -1 35 -2 35 -2 -1 -18 -13 -35 -29z"></path><path id="p1GvvgUrr0" d="M1470 1578 c0 -30 13 -58 26 -58 9 0 14 12 14 35 0 28 -4 35 -20 35 -11 0 -20 -6 -20 -12z"></path><path id="p1F6xR27hi" d="M3420 1485 c0 -53 13 -46 48 28 2 4 -8 7 -22 7 -23 0 -26 -4 -26 -35z"></path><path id="pmrv9ogA9" d="M1510 1461 c0 -6 11 -23 25 -38 l24 -28 1 38 c0 33 -3 37 -25 37 -14 0 -25 -4 -25 -9z"></path><path id="p1FroM7OX9" d="M2112 1415 l-22 -35 30 0 c28 0 30 3 30 35 0 44 -9 44 -38 0z"></path><path id="p5whWfHuf" d="M3259 1394 c-13 -14 -36 -33 -51 -42 -37 -22 -35 -32 7 -32 24 0 35 5 35 15 0 8 9 15 20 15 16 0 20 7 20 35 0 19 -1 35 -3 35 -2 0 -14 -12 -28 -26z"></path><path id="p8dwAOooB" d="M2860 1361 c0 -29 2 -31 35 -31 28 0 35 -4 35 -19 0 -13 10 -20 31 -25 91 -18 109 11 23 37 -31 10 -71 29 -90 43 l-34 26 0 -31z"></path><path id="p19GzAZRvn" d="M1968 1322 c-80 -26 -56 -53 31 -36 24 5 31 12 31 30 0 27 2 27 -62 6z"></path><path id="peWWFATDw" d="M3240 1279 l0 -30 30 21 c44 31 45 40 6 40 -33 0 -36 -2 -36 -31z"></path><path id="pDvL0imIM" d="M2850 1280 c0 -12 33 -30 54 -30 9 0 16 9 16 20 0 16 -7 20 -35 20 -19 0 -35 -4 -35 -10z"></path><path id="pCgiHY1GJ" d="M1980 1250 c0 -21 10 -24 48 -14 36 10 27 34 -13 34 -28 0 -35 -4 -35 -20z"></path><path id="pVdTgK9ER" d="M1750 1246 c0 -8 14 -17 31 -21 42 -9 99 2 99 20 0 12 -15 15 -65 15 -49 0 -65 -3 -65 -14z"></path><path id="pRTpMjGDg" d="M3090 1246 c0 -8 14 -17 31 -21 42 -9 99 2 99 20 0 12 -15 15 -65 15 -49 0 -65 -3 -65 -14z"></path><path id="p19N2MgkdY" d="M1862 865 c173 -166 348 -263 598 -332 60 -16 232 -44 238 -39 2 2 -34 35 -80 74 -98 83 -164 149 -156 158 4 3 42 -1 85 -10 63 -13 139 -15 390 -13 171 1 311 3 310 4 -9 7 -166 54 -212 62 -143 26 -685 44 -685 24 0 -5 25 -39 56 -78 31 -38 51 -71 45 -73 -19 -6 -202 59 -321 115 -63 29 -162 85 -221 123 -59 39 -113 70 -121 70 -7 -1 26 -39 74 -85z"></path></g></g><g id="l4426O02hKPXjNkDDnWMrWq" fill="rgb(202,144,0)" style="transform: none;"><g style="transform: none;"><path id="pERpArzKO" d="M2070 3830 c0 -16 7 -20 35 -20 40 0 49 24 13 34 -38 10 -48 7 -48 -14z"></path><path id="p1EhmNpirS" d="M2520 3791 c0 -13 6 -21 18 -21 9 0 41 -3 70 -6 43 -6 52 -4 52 9 0 15 -12 20 -97 32 -39 6 -43 5 -43 -14z"></path><path id="p18I9t7A0x" d="M2670 3770 c0 -16 7 -20 35 -20 40 0 49 24 13 34 -38 10 -48 7 -48 -14z"></path><path id="pbsyjWyjM" d="M2750 3760 c0 -16 7 -20 35 -20 40 0 49 24 13 34 -38 10 -48 7 -48 -14z"></path><path id="p16gz7Pq4k" d="M3050 3720 c0 -16 7 -20 35 -20 40 0 49 24 13 34 -38 10 -48 7 -48 -14z"></path><path id="p1EXgEIN2v" d="M3200 3625 c0 -43 14 -45 35 -5 20 38 19 40 -10 40 -22 0 -25 -4 -25 -35z"></path><path id="p1DF1QkckE" d="M1906 3498 c7 -59 19 -88 36 -88 7 0 9 17 4 53 -3 28 -6 60 -6 70 0 10 -8 17 -20 17 -19 0 -20 -4 -14 -52z"></path><path id="p101btMZG0" d="M3150 3485 c0 -22 5 -35 13 -35 8 0 18 16 24 35 11 33 10 35 -13 35 -21 0 -24 -5 -24 -35z"></path><path id="pQrDJytIc" d="M2470 3470 c0 -5 -14 -10 -30 -10 -42 0 -80 -39 -80 -82 l0 -33 54 58 c30 31 58 57 63 57 12 0 47 -38 62 -67 17 -34 31 -28 31 12 0 24 -5 35 -15 35 -8 0 -15 9 -15 20 0 16 -7 20 -35 20 -19 0 -35 -4 -35 -10z"></path><path id="prXldOZlW" d="M3140 3395 c0 -40 24 -49 34 -12 10 37 7 47 -14 47 -16 0 -20 -7 -20 -35z"></path><path id="p17GnGATQK" d="M2570 3343 c2 -18 36 -77 48 -81 13 -4 16 27 6 66 -4 15 -14 22 -30 22 -13 0 -24 -3 -24 -7z"></path><path id="poJ7b0PIa" d="M1969 3288 c5 -13 8 -25 7 -28 0 -3 7 -16 16 -28 13 -20 22 -23 47 -17 37 8 42 35 7 35 -19 0 -26 7 -31 30 -5 23 -12 30 -31 30 -20 0 -22 -3 -15 -22z"></path><path id="p1FzADEKx7" d="M2133 3245 c-18 -20 -16 -23 12 -17 14 2 25 0 25 -5 0 -5 -11 -16 -25 -23 -28 -15 -33 -30 -10 -30 8 0 15 -4 15 -10 0 -5 16 0 36 12 22 13 33 26 30 35 -3 8 -6 23 -6 34 0 15 -7 19 -32 19 -18 -1 -39 -7 -45 -15z"></path><path id="pUV2Zbwxh" d="M2660 3254 c0 -11 30 -35 50 -39 16 -3 20 1 20 21 0 21 -5 24 -35 24 -19 0 -35 -3 -35 -6z"></path><path id="p1ChJtNkwX" d="M2750 3203 c0 -5 16 -18 35 -31 l35 -22 0 30 c0 28 -3 30 -35 30 -19 0 -35 -3 -35 -7z"></path><path id="pqNFUM5Dy" d="M3170 3165 c0 -30 3 -35 24 -35 23 0 24 2 13 35 -6 19 -16 35 -24 35 -8 0 -13 -13 -13 -35z"></path><path id="pBULoAuZy" d="M2033 3134 c-48 -29 -55 -44 -19 -44 13 0 26 -5 28 -10 2 -6 13 -2 25 9 11 11 23 18 26 15 2 -3 7 2 10 11 4 8 2 15 -3 15 -6 0 -10 7 -10 15 0 20 -8 19 -57 -11z"></path><path id="phUg7q8q4" d="M2835 3140 c3 -5 19 -19 35 -30 l30 -21 0 30 c0 29 -3 31 -36 31 -20 0 -33 -4 -29 -10z"></path><path id="pjeasfqN4" d="M1900 3040 l-35 -30 38 0 c35 0 37 2 37 30 0 17 -1 30 -2 30 -2 0 -19 -14 -38 -30z"></path><path id="p1ABdDYLQw" d="M3260 3018 c0 -31 3 -38 20 -38 13 0 20 -7 20 -20 0 -16 7 -20 38 -20 l37 0 -35 33 c-19 17 -45 43 -57 57 l-22 25 -1 -37z"></path><path id="pk2OcafKH" d="M1890 2960 c0 -11 -7 -20 -15 -20 -10 0 -15 -11 -15 -35 0 -31 -3 -35 -25 -35 -22 0 -25 -4 -25 -35 0 -19 3 -35 8 -35 4 0 21 22 38 48 18 26 46 66 64 90 l32 42 -31 0 c-24 0 -31 -4 -31 -20z"></path><path id="pMeIXjsap" d="M3040 2930 c31 -44 40 -45 40 -6 0 33 -2 36 -31 36 l-30 0 21 -30z"></path><path id="pLrKVL9SL" d="M1773 2918 c-26 -29 -73 -100 -73 -110 0 -5 11 -8 25 -8 22 0 25 4 25 35 0 31 3 35 25 35 22 0 25 4 25 35 0 19 -1 35 -3 35 -2 0 -13 -10 -24 -22z"></path><path id="p3CGoWiKX" d="M3330 2840 c0 -16 4 -30 9 -30 5 0 19 14 31 30 l21 30 -30 0 c-28 0 -31 -3 -31 -30z"></path><path id="p19RAR5KQz" d="M1805 1990 l-20 -9 20 0 c11 0 27 4 35 9 13 9 13 10 0 9 -8 0 -24 -4 -35 -9z"></path><path id="p7Lw8xdJ5" d="M1868 1983 c24 -10 13 -41 -17 -48 -33 -7 -98 -85 -122 -145 -21 -53 -16 -184 9 -240 20 -43 20 -66 1 -55 -5 4 -9 2 -9 -4 0 -13 77 -78 101 -84 15 -4 19 0 19 19 0 13 -6 24 -13 24 -13 0 -47 65 -47 88 0 7 -3 12 -8 12 -10 0 -32 96 -32 139 0 37 30 131 42 131 5 0 8 11 8 25 0 17 6 25 17 25 9 0 24 7 34 16 10 9 36 18 59 21 30 4 40 10 38 22 -3 17 -64 61 -82 60 -6 0 -6 -3 2 -6z"></path><path id="pqBJWdRgI" d="M2985 1920 c-18 -20 -17 -20 48 -20 38 0 67 -4 67 -10 0 -5 11 -10 25 -10 17 0 25 -6 25 -17 0 -10 11 -40 25 -67 14 -27 28 -71 31 -97 6 -43 9 -49 30 -49 13 0 24 -4 24 -10 0 -20 28 -9 34 13 20 73 -8 206 -54 264 -21 26 -22 26 -15 5 5 -16 1 -30 -11 -43 -17 -19 -18 -19 -48 10 -56 54 -146 69 -181 31z"></path><path id="p1aGrgk9U" d="M1665 1810 c-4 -12 -5 -24 -2 -27 3 -2 8 5 12 17 4 12 5 24 2 27 -3 2 -8 -5 -12 -17z"></path><path id="pOhTltYEr" d="M1790 1765 c0 -22 5 -35 13 -35 8 0 18 16 24 35 11 33 10 35 -13 35 -21 0 -24 -5 -24 -35z"></path><path id="pWoHOvfSR" d="M1660 1645 c1 -11 7 -33 16 -50 l14 -30 -5 39 c-5 42 -25 75 -25 41z"></path><path id="pHGUdjOPE" d="M3186 1564 c-3 -9 -6 -28 -6 -44 0 -16 -5 -30 -11 -32 -6 -2 -9 -17 -7 -32 l3 -29 35 35 c49 51 55 59 58 91 3 25 1 27 -31 27 -23 0 -37 -6 -41 -16z"></path><path id="pxJZnv92s" d="M2855 1553 c6 -4 11 -15 13 -23 4 -19 44 -62 50 -55 3 3 -7 18 -22 34 -15 16 -27 33 -26 37 1 5 -4 10 -12 12 -8 2 -9 0 -3 -5z"></path></g></g><g id="l7XLH3lEXtGqEitDsodw3eV" fill="rgb(182,90,76)" style="transform: none;"><g style="transform: none;"><path id="pUaJmrzG" d="M2424 3277 c-170 -235 -286 -549 -339 -922 -23 -161 -22 -174 29 -217 45 -38 56 -39 56 -5 0 20 1 19 25 -3 39 -36 78 -125 79 -178 1 -28 16 -80 36 -129 33 -81 34 -82 88 -102 65 -25 77 -26 139 -5 60 20 75 34 92 81 30 86 116 244 159 293 55 63 137 118 221 149 l60 22 -5 47 c-12 103 -35 154 -95 215 -88 87 -89 86 -82 -100 3 -87 2 -155 -2 -151 -4 3 -15 48 -25 100 -26 132 -41 177 -135 408 -102 251 -240 540 -257 540 -7 -1 -27 -20 -44 -43z m118 -199 c153 -326 235 -537 269 -693 4 -22 13 -56 19 -75 19 -64 12 -102 -22 -129 -27 -22 -31 -23 -40 -8 -5 10 -21 17 -39 17 -86 0 -181 -114 -195 -232 -8 -69 7 -108 41 -108 22 0 24 -3 15 -19 -5 -11 -10 -29 -10 -40 0 -18 -6 -21 -45 -21 -33 0 -45 -4 -45 -15 0 -20 -19 -19 -73 4 -36 15 -47 27 -57 55 -6 20 -17 36 -25 36 -9 0 -15 22 -20 73 -7 84 -31 177 -45 177 -6 0 -10 7 -10 15 0 10 -10 15 -30 15 -23 0 -30 4 -30 20 0 17 -7 20 -40 20 -37 0 -40 2 -45 34 -11 54 21 270 61 421 14 55 29 114 31 130 3 17 9 32 12 35 9 7 101 224 101 238 0 7 4 12 8 12 5 0 17 19 28 43 10 23 26 50 35 60 9 10 25 35 35 57 10 22 24 40 29 40 6 0 45 -73 87 -162z m461 -695 c24 -68 22 -89 -10 -101 -16 -5 -36 -13 -45 -17 -17 -7 -18 2 -18 111 l1 119 27 -32 c15 -18 35 -54 45 -80z m-284 -311 c-45 -140 -125 -229 -143 -159 -13 54 49 171 114 215 35 23 35 23 38 3 2 -12 -2 -38 -9 -59z"></path><path id="p1DIxePAL0" d="M2390 2795 c0 -45 0 -45 35 -45 35 0 35 0 35 45 0 45 0 45 -35 45 -35 0 -35 0 -35 -45z"></path><path id="pFckyzQo4" d="M1974 3272 c0 -10 8 -26 18 -37 17 -18 18 -17 18 18 0 29 -4 37 -18 37 -10 0 -18 -7 -18 -18z"></path><path id="pmceKpUtf" d="M2650 3250 c0 -5 7 -10 15 -10 8 0 15 -5 15 -11 0 -5 5 -7 10 -4 6 3 10 2 10 -2 0 -5 9 -9 20 -10 24 -2 28 32 4 41 -25 10 -74 7 -74 -4z"></path><path id="p5IuHgR4k" d="M2650 3142 c0 -4 4 -12 8 -17 5 -6 16 -31 26 -56 12 -32 32 -60 69 -90 146 -123 270 -305 327 -483 22 -66 23 -139 5 -207 l-7 -26 54 10 c29 5 57 13 62 18 13 11 -10 129 -50 254 -76 239 -213 433 -390 551 -78 52 -104 63 -104 46z"></path><path id="pPtL3fcg8" d="M2060 3114 c0 -21 3 -24 13 -15 8 6 16 9 18 8 2 -2 12 5 22 15 16 17 16 18 -18 18 -31 0 -35 -3 -35 -26z"></path><path id="pexVK4Lf0" d="M2164 3066 c-216 -160 -372 -439 -399 -717 l-7 -66 32 -7 c18 -3 37 -6 43 -6 14 0 1 81 -15 91 -7 5 -8 9 -2 9 6 0 18 27 28 61 34 125 135 295 240 406 50 54 77 93 111 167 25 54 45 99 45 102 0 12 -23 0 -76 -40z m-45 -108 c-7 -13 -18 -29 -26 -36 -11 -11 -13 -10 -13 7 0 12 5 21 10 21 6 0 10 7 10 15 0 8 7 15 15 15 13 0 14 -4 4 -22z m-119 -137 c0 -5 -6 -14 -14 -20 -12 -10 -13 -8 -9 8 5 21 23 30 23 12z"></path><path id="pEQ9AkUnX" d="M1940 3000 c0 -27 2 -29 19 -19 10 7 23 20 30 30 10 17 8 19 -19 19 -27 0 -30 -3 -30 -30z"></path><path id="p1BvOfQZ9" d="M3163 2738 c19 -46 37 -48 37 -4 0 32 -3 36 -25 36 -24 0 -25 -1 -12 -32z"></path><path id="pr0DhbnNk" d="M1690 2565 c0 -22 5 -35 13 -35 8 0 18 16 24 35 11 33 10 35 -13 35 -21 0 -24 -5 -24 -35z"></path><path id="pmzeOFwh8" d="M2012 2551 c-71 -52 -142 -182 -142 -259 0 -27 5 -31 68 -54 37 -14 75 -28 85 -33 15 -6 17 1 17 92 0 55 5 126 10 159 25 145 27 141 -38 95z m-8 -173 c-4 -57 -7 -104 -8 -105 -1 -1 -21 3 -44 9 -38 10 -41 12 -35 37 10 44 76 161 90 161 2 0 0 -46 -3 -102z"></path><path id="ptvGMaEgq" d="M1610 2190 c-205 -24 -374 -174 -430 -379 -12 -47 -40 -205 -40 -233 0 -11 8 -18 20 -18 15 0 20 -7 20 -25 0 -34 27 -32 34 2 2 16 8 60 11 98 15 169 69 308 152 390 61 62 133 94 241 110 320 47 514 -140 608 -585 8 -36 14 -78 14 -95 0 -45 11 -75 26 -75 8 0 14 6 15 13 0 6 5 -2 10 -20 8 -27 17 -34 63 -47 64 -19 158 -20 241 -3 50 11 60 17 65 37 4 17 8 0 13 -47 5 -60 10 -77 32 -99 14 -14 23 -29 20 -32 -4 -4 -11 1 -16 11 -6 9 -18 17 -29 17 -12 0 -20 8 -22 23 -2 18 -10 23 -45 25 l-43 3 0 -56 c0 -53 1 -56 23 -53 19 3 21 8 19 38 l-4 34 41 -37 c79 -71 147 -96 335 -122 154 -21 186 -20 186 5 0 11 5 20 10 20 6 0 10 6 10 14 0 17 -27 23 -140 31 -153 11 -241 40 -307 104 -32 30 -33 35 -33 106 0 60 -3 75 -15 75 -8 0 -15 7 -15 15 0 8 7 15 15 15 9 0 16 14 20 38 3 20 11 57 17 82 77 322 152 447 318 528 75 37 75 37 205 36 149 0 216 -19 294 -82 89 -72 160 -232 181 -407 6 -49 13 -102 16 -118 8 -37 34 -36 34 3 0 23 4 30 20 30 25 0 25 11 -1 141 -30 150 -80 252 -166 338 -104 104 -215 150 -363 150 -255 0 -424 -126 -537 -399 -35 -83 -74 -226 -94 -338 -9 -54 -18 -76 -32 -84 -32 -17 -171 -22 -222 -8 -52 15 -60 25 -70 95 -6 45 -29 141 -53 220 -65 211 -199 402 -323 460 -92 42 -233 66 -329 55z"></path><path id="pjdDBJTlt" d="M1633 2048 c-53 -11 -60 -39 -10 -37 50 2 82 13 85 32 4 19 -9 20 -75 5z"></path><path id="pyxf3hFV6" d="M3400 2000 c0 -16 7 -20 35 -20 39 0 43 6 18 26 -27 20 -53 17 -53 -6z"></path><path id="p1GtNuICYW" d="M3370 1818 c0 -30 13 -58 26 -58 9 0 14 12 14 35 0 28 -4 35 -20 35 -11 0 -20 -6 -20 -12z"></path><path id="ple6LZyLf" d="M3139 1645 c-3 -35 -19 -65 -34 -65 -6 0 -20 -9 -30 -20 -18 -20 -17 -20 18 -20 21 0 37 5 37 10 0 6 6 10 14 10 15 0 26 30 26 73 0 29 -29 40 -31 12z"></path><path id="pzSmIXvij" d="M2553 1613 c-18 -7 -16 -43 2 -43 8 0 15 4 15 9 0 5 3 16 6 25 6 16 0 19 -23 9z"></path><path id="p8saXoT5q" d="M2850 1572 c0 -12 5 -22 11 -22 5 0 7 -5 3 -12 -4 -7 -3 -8 4 -4 9 5 9 13 1 29 -17 32 -19 33 -19 9z"></path><path id="pCZWCf7hN" d="M3222 1523 c-2 -36 -2 -36 16 -18 24 25 26 55 4 55 -12 0 -18 -10 -20 -37z"></path><path id="pYvlCN4f5" d="M1136 1518 c-3 -13 -6 -46 -6 -75 0 -45 -4 -57 -31 -84 -22 -22 -29 -38 -25 -53 3 -11 6 -24 6 -28 0 -14 30 -8 30 5 0 22 24 67 36 67 14 0 24 55 24 133 0 42 -4 57 -14 57 -7 0 -16 -10 -20 -22z"></path><path id="pl7ddPDIY" d="M2056 1524 c-10 -25 -1 -27 19 -4 15 17 16 20 3 20 -9 0 -19 -7 -22 -16z"></path><path id="pHNoRLhxb" d="M3790 1498 c0 -73 12 -148 24 -148 19 0 36 -51 36 -106 0 -52 0 -52 -42 -69 -80 -32 -322 -85 -334 -73 -2 2 27 10 64 18 37 7 95 25 130 41 56 25 62 31 62 58 l0 30 -55 -34 c-64 -38 -179 -71 -280 -80 -101 -9 -125 -15 -125 -31 0 -9 11 -14 30 -14 23 0 30 -4 30 -20 0 -24 6 -25 165 -5 179 22 317 56 373 91 20 13 22 22 22 97 0 79 -1 84 -30 109 -26 23 -30 33 -30 80 0 67 -9 98 -26 98 -10 0 -14 -13 -14 -42z m-362 -405 c-10 -2 -26 -2 -35 0 -10 3 -2 5 17 5 19 0 27 -2 18 -5z"></path><path id="pePrdqqda" d="M3050 1521 c0 -4 -11 -20 -25 -35 l-24 -26 34 0 c33 0 35 2 35 35 0 19 -4 35 -10 35 -5 0 -10 -4 -10 -9z"></path><path id="pnHBLO5S9" d="M2897 1490 c14 -16 35 -30 46 -30 20 0 20 0 1 19 -10 10 -22 17 -25 15 -4 -2 -12 3 -19 11 -7 8 -16 15 -21 15 -5 0 3 -13 18 -30z"></path><path id="pNeHnR4ue" d="M3370 1404 c0 -39 9 -38 40 6 l21 30 -30 0 c-29 0 -31 -3 -31 -36z"></path><path id="pUMR4hxGE" d="M3203 1348 c-42 -26 -42 -38 2 -38 32 0 35 2 35 30 0 17 -1 30 -2 29 -2 0 -18 -10 -35 -21z"></path><path id="pQ3XLDEPR" d="M1180 1275 c0 -31 3 -35 25 -35 20 0 25 -5 25 -24 0 -19 12 -29 70 -55 39 -17 78 -31 88 -32 9 0 12 -3 5 -5 -14 -6 -170 31 -237 57 -64 24 -76 24 -76 0 0 -22 23 -33 150 -65 112 -29 182 -42 268 -51 58 -6 62 -5 62 15 0 14 6 20 23 19 12 0 16 -3 10 -6 -21 -8 -15 -30 10 -37 29 -8 255 -8 285 0 21 6 32 34 12 34 -5 0 -10 9 -10 20 0 18 -7 19 -117 18 -164 -1 -265 10 -358 38 -109 33 -176 71 -195 111 -20 44 -40 42 -40 -2z"></path><path id="p67TSyWkI" d="M2250 1285 c0 -19 -62 -80 -101 -101 -48 -24 -120 -44 -164 -44 -22 0 -50 -3 -62 -6 -26 -7 -32 -34 -8 -34 9 0 15 -9 15 -21 0 -19 4 -20 68 -14 129 12 239 55 311 120 47 42 54 43 46 6 -6 -26 -4 -29 32 -35 21 -3 57 -6 81 -6 35 0 42 3 42 20 0 18 -7 20 -60 20 l-60 0 0 35 c0 34 -1 35 -39 35 -32 0 -44 -6 -75 -40 -20 -22 -41 -40 -47 -40 -6 0 3 13 20 29 34 32 45 91 16 91 -8 0 -15 -7 -15 -15z"></path></g></g><g id="l7ba3ib6iz6fiqtstU4u5Jg" fill="rgb(210,154,4)" style="transform: none;"><g style="transform: none;"><path id="p21PP2Kip" d="M1942 3845 c-17 -38 -15 -55 8 -55 14 0 20 7 20 21 0 19 4 21 38 15 119 -19 122 -19 122 -4 0 17 -48 33 -126 43 -47 6 -51 5 -62 -20z"></path><path id="pFfTzRcg3" d="M2140 3821 c0 -15 12 -21 63 -30 87 -15 117 -14 117 4 0 9 -14 16 -37 20 -21 3 -57 10 -80 16 -58 13 -63 12 -63 -10z"></path><path id="p1YW04FOx" d="M2510 3792 c0 -16 9 -21 57 -27 l56 -7 -124 -42 c-177 -59 -370 -173 -524 -308 l-39 -35 28 -70 c15 -39 31 -75 35 -81 4 -7 32 -7 90 -1 46 5 87 6 90 3 3 -4 1 -9 -5 -11 -7 -2 -38 -20 -70 -40 -33 -19 -75 -44 -94 -55 -98 -56 -232 -184 -293 -280 -47 -74 -94 -166 -103 -200 -5 -25 -3 -28 20 -28 14 0 26 3 26 8 0 4 27 25 59 47 42 28 64 52 77 80 70 162 265 365 439 456 40 21 62 44 107 110 57 83 118 149 138 149 21 0 84 -92 111 -163 8 -21 31 -37 93 -66 118 -57 222 -141 335 -271 l30 -35 1 28 c0 15 3 27 6 27 17 0 136 -94 187 -149 32 -33 63 -61 68 -61 5 0 9 -9 9 -19 0 -30 11 -51 26 -51 9 0 14 -11 14 -30 0 -25 4 -30 25 -30 14 0 25 3 25 8 0 4 -18 40 -40 79 l-39 73 27 29 c15 17 35 44 45 60 l18 30 -31 16 c-42 22 -114 95 -145 149 -54 92 -67 143 -68 266 0 101 3 125 27 194 15 43 39 97 52 118 14 22 23 42 21 44 -5 5 -63 14 -222 34 -49 6 -119 15 -155 20 -36 6 -90 12 -120 15 -30 2 -69 7 -87 11 -25 5 -32 3 -36 -12 -4 -16 -5 -16 -6 -2 -1 16 -13 20 -98 33 -38 6 -43 5 -43 -13z"></path><path id="p9hcLYjHy" d="M1906 3698 c-11 -42 -7 -58 14 -58 17 0 20 7 20 40 0 45 -23 57 -34 18z"></path><path id="p1EU1xPL34" d="M1900 3553 c0 -34 12 -63 26 -63 10 0 14 13 14 40 0 33 -3 40 -20 40 -12 0 -20 -7 -20 -17z"></path><path id="p11OtxOqBg" d="M3102 2840 c29 -44 56 -80 61 -80 4 0 7 16 7 35 0 19 -4 35 -10 35 -5 0 -10 7 -10 15 0 8 -4 15 -10 15 -5 0 -10 7 -10 15 0 8 -4 15 -10 15 -5 0 -10 7 -10 15 0 10 -10 15 -30 15 l-30 0 52 -80z"></path><path id="pghgjijlQ" d="M3400 2570 c0 -36 2 -40 26 -40 20 0 25 4 20 16 -3 9 -9 27 -12 40 -10 40 -34 29 -34 -16z"></path><path id="p15aQb4wMm" d="M1920 1951 c0 -4 -19 -11 -41 -14 -52 -7 -100 -52 -134 -124 -30 -63 -31 -83 -5 -83 15 0 20 7 20 25 0 14 4 25 9 25 5 0 14 12 19 28 10 27 10 26 11 -10 1 -21 -3 -38 -9 -38 -5 0 -10 -16 -10 -35 0 -49 27 -47 36 3 19 105 77 167 148 158 l39 -4 -39 39 c-41 42 -44 44 -44 30z"></path><path id="pDj3ubvtZ" d="M3014 1933 c-12 -2 -30 -13 -40 -24 -17 -19 -16 -19 24 -19 32 0 49 -7 77 -31 l35 -31 0 31 c0 21 5 31 15 31 9 0 15 -9 15 -25 0 -14 5 -25 10 -25 6 0 10 -7 10 -15 0 -8 4 -15 8 -15 11 0 32 -83 32 -128 0 -21 -7 -64 -15 -95 -8 -32 -15 -74 -15 -92 0 -30 -3 -35 -24 -35 -13 0 -26 -4 -28 -10 -1 -5 -24 -13 -51 -16 -41 -6 -50 -4 -66 15 -10 11 -25 21 -33 21 -8 0 -32 11 -52 25 -20 13 -36 22 -36 19 0 -2 19 -25 42 -50 68 -73 129 -90 203 -55 62 30 102 73 136 145 28 60 31 75 31 167 -1 66 -5 106 -13 113 -9 8 -10 4 -5 -17 4 -17 0 -52 -10 -85 l-17 -57 -13 63 c-15 74 -52 142 -93 171 -29 21 -90 33 -127 24z"></path><path id="pSBOfLR05" d="M3130 1778 c0 -30 13 -58 26 -58 9 0 14 12 14 35 0 28 -4 35 -20 35 -11 0 -20 -6 -20 -12z"></path><path id="pVu4iYMAr" d="M1780 1640 c0 -33 3 -40 20 -40 21 0 25 16 14 58 -11 39 -34 27 -34 -18z"></path><path id="pFQ5cKt0T" d="M1720 1630 c0 -20 34 -122 51 -153 9 -17 9 -17 -18 0 l-28 17 20 -23 c28 -32 115 -81 146 -81 45 0 127 49 159 95 40 58 38 66 -5 22 -20 -21 -42 -37 -50 -37 -8 0 -15 -6 -15 -14 0 -17 -113 -32 -118 -16 -2 6 -14 22 -26 35 -46 50 -52 62 -65 118 -11 44 -18 57 -33 57 -11 0 -18 -7 -18 -20z"></path></g></g><g id="l2CDiWME0Qiwopb80fGFGi7" fill="rgb(24,140,207)" style="transform: none;"><g style="transform: none;"><path id="pIOtbLwFl" d="M300 4030 c-12 -17 -19 -36 -16 -43 4 -7 13 -22 20 -34 l13 -23 11 25 c6 14 26 34 44 45 19 11 26 20 17 20 -9 0 -24 9 -34 20 -24 27 -30 25 -55 -10z"></path><path id="padvL0cJU" d="M4060 3599 c0 -5 12 -11 28 -14 15 -4 44 -10 65 -15 20 -4 37 -5 37 -1 0 4 -29 14 -65 23 -36 8 -65 11 -65 7z"></path><path id="pd7R25cXR" d="M1696 3543 c-4 -14 2 -37 20 -70 43 -78 44 -73 6 37 -16 46 -20 51 -26 33z"></path><path id="p1Gv6hWnSj" d="M1656 2671 c-4 -6 -14 -7 -23 -4 -12 5 -14 3 -8 -6 4 -7 4 -16 -1 -20 -12 -8 -44 -78 -44 -96 0 -8 -5 -14 -11 -12 -6 1 -25 -23 -42 -53 -34 -61 -100 -220 -94 -226 2 -2 22 3 44 12 36 14 41 21 50 62 l10 47 2 -47 c1 -50 5 -53 49 -42 25 7 31 34 7 34 -8 0 -15 9 -15 19 0 38 30 160 60 247 27 78 34 114 16 85z m-101 -231 c-4 -23 -9 -39 -12 -36 -3 2 -2 23 2 46 4 23 9 39 12 36 3 -2 2 -23 -2 -46z"></path><path id="pTQzik5js" d="M3225 2591 c13 -38 28 -94 35 -125 8 -39 16 -56 27 -56 13 0 15 9 9 58 -4 31 -11 59 -16 60 -6 2 -10 15 -10 29 0 14 -5 43 -12 64 -9 31 -16 39 -34 39 l-23 0 24 -69z"></path><path id="p19mVuLblG" d="M3420 2538 c0 -13 5 -70 12 -127 9 -82 9 -106 0 -109 -13 -4 -17 -32 -4 -32 4 0 17 -3 30 -6 20 -6 22 -3 22 37 0 64 -21 221 -31 242 -13 24 -29 21 -29 -5z"></path><path id="pm0hIHcfX" d="M1640 2345 c0 -37 22 -49 34 -19 12 32 6 54 -14 54 -16 0 -20 -7 -20 -35z"></path><path id="pEy2yrC5N" d="M3280 2310 c0 -13 7 -20 20 -20 13 0 20 7 20 20 0 13 -7 20 -20 20 -13 0 -20 -7 -20 -20z"></path><path id="p11eabDQmm" d="M1670 2053 c-22 -9 -40 -30 -40 -47 0 -9 -6 -16 -14 -16 -17 0 -26 -22 -26 -61 0 -39 12 -36 38 9 12 21 37 54 57 73 19 19 35 37 35 42 0 8 -28 8 -50 0z"></path><path id="paMXw27py" d="M1513 2009 c-51 -25 -55 -39 -10 -39 42 0 60 12 55 39 l-3 21 -42 -21z"></path><path id="pwdDXfGRl" d="M3335 1933 c4 -10 10 -26 12 -35 10 -33 33 -20 33 17 0 31 -3 35 -26 35 -21 0 -25 -3 -19 -17z"></path><path id="pOu9HdiSS" d="M3500 1936 c0 -7 -9 -25 -20 -39 -39 -50 -39 -157 0 -157 23 0 24 10 10 60 -8 28 -7 36 6 43 17 10 44 66 44 92 0 8 -9 15 -20 15 -11 0 -20 -6 -20 -14z"></path><path id="pG8lPNlJH" d="M1430 1916 c0 -8 9 -30 20 -48 17 -30 18 -40 9 -102 -12 -78 -5 -136 16 -136 10 0 15 11 15 33 0 19 3 75 6 125 6 81 5 92 -10 92 -10 0 -16 8 -16 25 0 18 -5 25 -20 25 -11 0 -20 -6 -20 -14z"></path><path id="pXI5Sguiq" d="M1540 1670 c0 -33 3 -40 20 -40 21 0 25 16 14 58 -11 39 -34 27 -34 -18z"></path><path id="ppMmJ3AKB" d="M3376 1648 c-10 -38 -7 -48 14 -48 16 0 20 7 20 35 0 40 -24 49 -34 13z"></path><path id="pne90p2Ta" d="M1905 1633 c-3 -10 -1 -19 4 -21 6 -2 11 -10 11 -18 0 -19 26 -18 34 2 8 20 -10 54 -28 54 -8 0 -17 -8 -21 -17z"></path><path id="pldJjJEuv" d="M3003 1643 c-7 -2 -13 -13 -13 -24 0 -14 7 -19 30 -19 23 0 30 5 30 19 0 15 -23 35 -33 30 -1 0 -8 -3 -14 -6z"></path><path id="p8ZqbyEhO" d="M1560 1555 c0 -30 3 -35 24 -35 23 0 24 2 13 35 -6 19 -16 35 -24 35 -8 0 -13 -13 -13 -35z"></path><path id="p13Ij0ZOnt" d="M2390 1558 c0 -30 13 -58 26 -58 9 0 14 12 14 35 0 28 -4 35 -20 35 -11 0 -20 -6 -20 -12z"></path><path id="p18Bz7LVdX" d="M3055 1530 c-20 -38 -19 -40 10 -40 22 0 25 4 25 35 0 43 -14 45 -35 5z"></path><path id="pjgBLgck5" d="M1600 1465 c0 -24 5 -35 15 -35 8 0 15 -9 15 -20 0 -16 7 -20 30 -20 l30 0 -37 55 c-21 30 -41 55 -45 55 -4 0 -8 -16 -8 -35z"></path><path id="pOyZbwb3j" d="M1500 1483 c0 -11 60 -100 80 -118 20 -18 20 -17 20 18 0 33 -3 37 -25 37 -22 0 -25 4 -25 35 0 31 -3 35 -25 35 -14 0 -25 -3 -25 -7z"></path><path id="pWffmNH0S" d="M3308 1453 c-9 -16 -29 -40 -43 -55 l-26 -28 36 0 c28 0 35 4 35 20 0 11 7 20 15 20 10 0 15 11 15 35 0 42 -10 44 -32 8z"></path><path id="pYsAfGz9t" d="M2131 1442 c-6 -12 -11 -34 -11 -51 0 -25 4 -31 21 -31 19 0 20 4 13 48 -8 57 -9 59 -23 34z"></path><path id="pKBZE8rIV" d="M2070 1370 c-14 -11 -40 -27 -57 -36 -43 -21 -42 -34 2 -34 24 0 35 5 35 15 0 9 9 15 25 15 21 0 25 5 25 30 0 35 2 35 -30 10z"></path><path id="pamVf0GCV" d="M1712 1348 c3 -30 6 -33 41 -36 48 -4 47 9 -4 42 l-40 27 3 -33z"></path><path id="pW0oPkfKQ" d="M2910 1326 c0 -23 4 -26 35 -26 53 0 46 13 -27 48 -5 2 -8 -8 -8 -22z"></path><path id="p2zsXIcJB" d="M1800 1300 c0 -16 7 -20 35 -20 40 0 49 24 13 34 -38 10 -48 7 -48 -14z"></path><path id="p6X3jHLb1" d="M3108 1313 c-33 -8 -20 -33 17 -33 28 0 35 4 35 20 0 20 -14 23 -52 13z"></path><path id="pcB8hikXo" d="M1698 1260 c35 -33 62 -39 62 -14 0 25 -26 44 -61 44 l-32 0 31 -30z"></path><path id="pJLZmBMTP" d="M1970 1250 c0 -21 10 -24 48 -14 36 10 27 34 -13 34 -28 0 -35 -4 -35 -20z"></path><path id="p4yybQ9lU" d="M1800 931 c0 -13 28 -33 41 -29 6 2 0 12 -15 21 -14 10 -26 13 -26 8z"></path><path id="p1CUtrR8FY" d="M1860 876 c0 -12 67 -66 80 -65 11 1 10 3 -2 6 -10 2 -18 8 -18 12 0 4 -13 17 -30 29 -16 13 -30 20 -30 18z"></path><path id="p14i9QPbPH" d="M2000 753 c0 -7 33 -32 43 -33 16 0 5 16 -18 27 -14 6 -25 9 -25 6z"></path><path id="p136NdBuGW" d="M2100 685 c7 -8 20 -15 28 -15 13 0 12 3 -4 15 -25 19 -40 19 -24 0z"></path></g></g><g id="lCE9heISkjLRqXu9dFGfOr" fill="rgb(196,100,81)" style="transform: none;"><g style="transform: none;"><path id="pt63cdaNq" d="M2437 3288 c-14 -18 -23 -35 -18 -38 4 -3 0 -70 -10 -150 -49 -423 -52 -831 -8 -1233 6 -55 8 -101 5 -104 -7 -7 -36 23 -36 36 0 6 -4 11 -10 11 -5 0 -10 9 -10 20 0 36 -22 70 -46 70 -26 0 -27 1 19 -101 22 -48 31 -58 69 -72 24 -9 62 -17 85 -17 49 0 133 34 133 53 0 18 40 111 86 201 19 37 34 70 31 72 -2 2 -16 -21 -31 -51 -49 -96 -106 -133 -125 -81 -24 61 52 201 131 242 25 13 29 13 34 -1 3 -8 1 -29 -5 -46 -6 -18 -11 -35 -11 -39 0 -15 28 -6 39 13 7 11 8 16 2 13 -7 -4 -8 -1 -5 8 3 9 13 16 21 16 8 0 35 18 59 39 42 36 137 89 193 106 22 7 23 11 19 74 -3 44 -12 82 -29 115 -25 51 -110 133 -127 122 -5 -3 -6 -25 -1 -53 10 -59 11 -219 3 -262 -9 -45 -24 -38 -24 12 0 23 -5 58 -10 77 -6 19 -15 53 -19 75 -24 107 -89 293 -169 475 -38 89 -194 416 -201 423 -5 5 -20 -6 -34 -25z"></path><path id="pB7UCX2lU" d="M2329 3118 c-30 -57 -95 -196 -112 -240 -5 -14 -1 -18 18 -18 22 0 25 4 25 35 0 23 5 35 14 35 17 0 26 22 26 61 0 19 5 29 15 29 10 0 15 11 15 35 0 28 4 35 19 35 21 0 31 19 31 61 0 44 -14 35 -51 -33z"></path><path id="pKiPppehL" d="M2681 3088 c11 -24 23 -49 27 -57 10 -17 40 -23 38 -7 -2 21 15 17 50 -13 39 -35 42 -41 14 -34 -11 3 -20 10 -20 17 0 6 -5 4 -10 -4 -7 -11 1 -24 32 -52 22 -21 45 -38 50 -38 5 0 6 -4 3 -10 -3 -5 -2 -10 4 -10 18 0 23 20 10 38 -7 9 4 1 25 -18 46 -42 151 -200 196 -293 18 -37 34 -66 36 -64 14 14 -74 206 -139 301 -83 123 -264 286 -317 286 -17 0 -17 -2 1 -42z"></path><path id="pmJC59KgR" d="M2174 3069 c-211 -146 -358 -404 -402 -709 -5 -36 -8 -66 -7 -68 1 -2 18 -5 36 -8 l34 -6 -3 69 c-3 55 2 82 22 136 54 143 137 272 255 394 30 32 71 99 71 117 0 5 14 31 31 58 16 28 28 52 26 54 -2 2 -30 -14 -63 -37z m-241 -354 c-8 -25 -21 -45 -29 -45 -16 0 -10 15 24 68 21 33 23 27 5 -23z m-69 -152 c-8 -8 -22 -31 -30 -51 -9 -21 -18 -32 -21 -25 -2 6 5 32 17 57 14 31 25 44 35 40 13 -5 13 -8 -1 -21z"></path><path id="pRWB47c5S" d="M2176 2767 c-31 -100 -32 -107 -6 -107 16 0 20 7 20 30 0 17 3 30 8 30 10 0 32 73 32 105 0 53 -27 24 -54 -58z"></path><path id="p1D9vf5Y6Q" d="M2930 2802 c0 -4 14 -23 30 -42 29 -34 30 -34 20 -7 -6 16 -8 33 -4 38 3 5 2 9 -3 10 -4 0 -16 2 -25 4 -10 2 -18 0 -18 -3z"></path><path id="pFe2HqUQx" d="M2136 2628 c-10 -38 -7 -48 14 -48 16 0 20 7 20 35 0 40 -24 49 -34 13z"></path><path id="pN5Tv8CxZ" d="M1700 2594 c0 -44 18 -42 37 4 13 31 12 32 -12 32 -22 0 -25 -4 -25 -36z"></path><path id="pzMZaS1uj" d="M2019 2546 c-38 -26 -76 -72 -104 -126 -21 -39 -47 -139 -39 -151 2 -4 19 -11 37 -14 17 -4 49 -16 69 -26 21 -11 41 -19 46 -19 6 0 8 27 5 63 -3 34 2 113 11 176 9 63 15 116 13 117 -2 2 -19 -7 -38 -20z"></path><path id="pYkC3hpdc" d="M2116 2538 c-10 -38 -7 -48 14 -48 16 0 20 7 20 35 0 40 -24 49 -34 13z"></path><path id="pJQOsDYM0" d="M1670 2505 c0 -22 5 -35 13 -35 8 0 18 16 24 35 11 33 10 35 -13 35 -21 0 -24 -5 -24 -35z"></path><path id="p3CkTts1T" d="M2101 2436 c-15 -62 -14 -76 8 -76 18 0 31 39 31 98 0 40 -27 24 -39 -22z"></path><path id="p1CoSDL0Oe" d="M1640 2335 c0 -24 5 -35 15 -35 8 0 15 6 16 13 0 6 2 22 5 35 3 17 -1 22 -16 22 -16 0 -20 -7 -20 -35z"></path><path id="pLGudHzH6" d="M2086 2323 c-2 -16 -7 -53 -11 -83 -6 -54 -5 -56 34 -93 21 -20 41 -37 44 -37 3 0 8 10 11 23 6 21 8 20 46 -22 22 -24 45 -61 52 -82 14 -50 38 -52 38 -4 0 24 -5 35 -15 35 -10 0 -15 10 -15 30 0 23 -5 30 -19 30 -14 0 -21 8 -23 28 -3 24 -8 28 -51 33 -27 3 -52 12 -57 20 -5 7 -7 44 -3 82 5 57 3 67 -10 67 -9 0 -18 -11 -21 -27z"></path><path id="p5MbuZCUG" d="M3180 2316 c0 -8 -6 -17 -12 -19 -7 -3 -3 -6 9 -6 16 -1 20 3 16 19 -6 23 -13 26 -13 6z"></path><path id="pKTxO7jNn" d="M1563 2179 c-151 -29 -315 -174 -363 -318 -12 -37 -12 -44 1 -52 12 -7 11 -9 -3 -9 -17 0 -26 -31 -48 -170 -15 -96 -13 -110 10 -110 13 0 20 7 20 20 0 11 6 20 14 20 28 0 36 86 9 93 -16 4 -16 5 -1 6 12 1 20 17 28 59 52 261 170 389 393 427 28 4 37 11 37 25 0 22 -22 24 -97 9z"></path><path id="p1BYXkWHXY" d="M1680 2170 c0 -16 7 -20 34 -20 250 0 422 -189 505 -555 11 -49 23 -107 26 -127 4 -24 11 -38 20 -38 8 0 15 5 15 10 0 6 7 10 15 10 8 0 15 8 15 18 0 40 -70 272 -82 272 -5 0 -7 4 -4 8 6 10 -64 158 -99 210 -39 57 -126 142 -167 163 -51 26 -112 46 -182 58 -84 15 -96 14 -96 -9z"></path><path id="p13brbunFQ" d="M3180 2179 c-30 -5 -73 -14 -95 -21 -59 -19 -145 -69 -145 -85 0 -7 -7 -13 -16 -13 -9 0 -27 -12 -39 -26 -18 -21 -20 -30 -12 -39 10 -10 22 -3 60 32 149 139 413 160 595 46 l52 -33 0 24 c0 18 -12 32 -47 53 -92 56 -237 82 -353 62z"></path><path id="pTgdCEiqv" d="M3590 2047 c0 -12 9 -35 21 -52 11 -16 31 -51 45 -77 26 -52 43 -61 45 -25 1 12 5 0 10 -27 4 -27 14 -53 21 -57 10 -7 9 -9 -4 -9 -20 0 -22 -18 -9 -70 5 -19 12 -52 15 -72 5 -27 12 -38 29 -41 l22 -4 -22 -2 c-24 -1 -28 -16 -17 -58 5 -18 13 -23 41 -23 l35 0 -7 58 c-10 89 -26 142 -41 142 -17 0 -18 17 -2 22 10 4 9 18 -5 61 -21 66 -46 112 -105 189 -49 64 -72 79 -72 45z"></path><path id="pvyrGVj2x" d="M3291 1995 c18 -19 34 -35 36 -35 1 0 3 16 3 35 0 33 -2 35 -35 35 l-35 0 31 -35z"></path><path id="peYMg788s" d="M2812 1940 c-19 -28 -40 -67 -48 -85 -14 -34 -14 -35 8 -35 18 0 31 16 60 70 33 60 41 100 19 100 -3 0 -21 -23 -39 -50z"></path><path id="p1HUePMraH" d="M3370 1828 c0 -30 13 -58 26 -58 9 0 14 12 14 35 0 28 -4 35 -20 35 -11 0 -20 -6 -20 -12z"></path><path id="pEhyIPD13" d="M2732 1778 c-15 -30 -57 -170 -70 -233 -27 -131 -34 -167 -30 -170 1 -1 17 -6 34 -9 27 -6 32 -4 38 16 10 40 7 68 -9 68 -19 0 -20 19 -1 26 20 8 32 64 16 74 -8 5 -8 11 4 22 18 18 68 188 55 188 -5 0 -9 9 -9 20 0 27 -14 25 -28 -2z"></path><path id="pzDQ63fTo" d="M2380 1601 c0 -16 6 -21 25 -21 16 0 25 6 25 15 0 8 -4 15 -9 15 -5 0 -16 3 -25 6 -12 4 -16 0 -16 -15z"></path><path id="pTXw64hRt" d="M2440 1590 c0 -17 7 -20 45 -20 38 0 45 3 45 20 0 17 -7 20 -45 20 -38 0 -45 -3 -45 -20z"></path><path id="p190Ny73B0" d="M1850 1540 c0 -25 4 -30 25 -30 29 0 31 7 9 38 -21 30 -34 28 -34 -8z"></path><path id="plSAzQLJY" d="M2520 1515 c0 -40 24 -49 34 -12 10 37 7 47 -14 47 -16 0 -20 -7 -20 -35z"></path><path id="p9imYZcUr" d="M3042 1505 l-22 -35 30 0 c28 0 30 3 30 35 0 44 -9 44 -38 0z"></path><path id="pLm8RH4xk" d="M1170 1480 c0 -11 -7 -20 -15 -20 -9 0 -17 -14 -21 -37 -3 -21 -18 -50 -32 -65 l-26 -28 37 0 c33 0 37 3 37 25 0 14 5 25 10 25 6 0 10 -22 10 -50 0 -27 4 -50 9 -50 6 0 11 -15 13 -32 2 -25 8 -34 26 -36 12 -2 22 -9 22 -16 0 -16 89 -56 124 -56 14 0 26 -5 26 -10 0 -10 -29 -7 -84 11 -45 14 -86 11 -86 -6 0 -8 2 -15 4 -15 2 0 31 -7 63 -15 48 -12 256 -45 285 -45 4 0 8 7 8 15 0 11 11 15 40 15 27 0 40 4 40 14 0 28 -86 36 -93 9 -4 -15 -5 -16 -6 -2 -2 28 -81 41 -81 14 0 -10 -9 -15 -27 -14 -17 1 -21 3 -10 6 28 7 19 31 -15 38 -53 12 -161 64 -190 92 -27 26 -28 29 -28 140 0 106 -1 113 -20 113 -13 0 -20 -7 -20 -20z"></path><path id="p4GqitDNL" d="M3790 1435 c0 -25 5 -45 10 -45 6 0 10 -13 10 -30 0 -28 3 -30 37 -30 l37 0 -27 28 c-15 15 -27 39 -27 53 0 40 -11 69 -26 69 -10 0 -14 -13 -14 -45z"></path><path id="pZnnoq9sj" d="M3390 1433 l1 -38 24 28 c32 36 31 47 0 47 -22 0 -25 -4 -25 -37z"></path><path id="pXUkKA0Rt" d="M2800 1441 c0 -12 6 -21 15 -21 8 0 15 4 15 9 0 5 -7 14 -15 21 -13 10 -15 9 -15 -9z"></path><path id="pbpwrEBzb" d="M2290 1405 c0 -8 -9 -15 -20 -15 -18 0 -20 -7 -20 -64 0 -64 0 -65 -47 -105 -25 -23 -68 -49 -95 -58 -33 -12 -48 -23 -48 -35 0 -10 -4 -18 -10 -18 -5 0 -10 7 -10 15 0 8 -8 15 -17 15 -34 0 -63 -12 -63 -26 0 -8 -7 -14 -15 -14 -8 0 -15 7 -15 15 0 16 -36 20 -77 9 -40 -11 -28 -34 17 -34 30 0 40 -4 40 -16 0 -13 9 -14 58 -9 155 18 274 59 323 111 l22 24 -25 0 c-22 0 -25 4 -20 25 2 14 8 25 13 25 5 0 9 23 9 50 0 28 5 50 10 50 6 0 10 -4 10 -10 0 -5 16 -10 35 -10 41 0 49 24 10 34 -15 4 -27 16 -31 31 -7 27 -34 35 -34 10z"></path><path id="pBxJdV1MO" d="M3750 1333 c0 -48 -4 -61 -27 -85 l-27 -28 37 0 c30 0 37 4 37 20 0 11 5 20 10 20 6 0 10 28 10 65 0 58 -2 65 -20 65 -18 0 -20 -7 -20 -57z"></path><path id="p2dIEfDjb" d="M2508 1343 c-33 -8 -20 -33 17 -33 28 0 35 4 35 20 0 20 -14 23 -52 13z"></path><path id="pZw6amiHH" d="M2670 1300 c0 -33 3 -40 20 -40 21 0 25 16 14 58 -11 39 -34 27 -34 -18z"></path><path id="pRtHPDksU" d="M2930 1256 c0 -13 28 -26 58 -26 6 0 12 9 12 20 0 16 -7 20 -35 20 -23 0 -35 -5 -35 -14z"></path><path id="pwVeRVjEd" d="M3850 1238 c0 -18 -4 -38 -8 -43 -11 -17 -193 -69 -267 -78 -22 -2 -32 -2 -22 0 17 4 25 43 8 43 -5 0 -41 -7 -80 -16 -46 -11 -71 -21 -71 -30 0 -8 5 -14 10 -14 6 0 10 -9 10 -20 0 -11 3 -20 6 -20 29 0 233 35 289 50 151 39 173 57 160 126 -8 45 -35 46 -35 2z"></path><path id="pwSi6IR9x" d="M2633 1207 c41 -41 110 -87 132 -87 8 0 15 7 15 15 0 8 7 15 15 15 11 0 14 -7 9 -24 -5 -21 -1 -25 43 -35 51 -11 169 -31 191 -31 6 0 12 7 12 15 0 10 10 15 30 15 19 0 30 -5 30 -14 0 -20 32 -26 140 -26 122 0 137 5 145 42 4 16 4 32 1 35 -11 11 -76 -8 -76 -22 0 -12 -19 -15 -95 -15 -74 0 -95 3 -95 14 0 14 -29 26 -62 26 -10 0 -18 -7 -18 -15 0 -8 -4 -15 -10 -15 -5 0 -10 7 -10 15 0 9 -14 16 -37 20 -103 17 -150 31 -199 61 l-54 33 0 -29 c0 -19 6 -30 18 -33 13 -4 11 -5 -5 -6 -14 -1 -23 5 -23 14 0 8 -8 15 -18 15 -9 0 -22 10 -27 23 -7 16 -20 23 -48 25 l-39 3 35 -34z"></path><path id="pgcdF7SVN" d="M2570 1205 c0 -12 -13 -15 -60 -15 -44 0 -60 -4 -60 -14 0 -17 31 -26 97 -26 57 0 67 7 57 45 -7 27 -34 35 -34 10z"></path><path id="p1HGg9GXqK" d="M3628 1187 c-40 -16 -36 -37 7 -37 31 0 35 3 35 25 0 27 -2 28 -42 12z"></path><path id="pdhNcMsw" d="M1110 1167 c0 -7 23 -20 50 -29 l50 -16 0 23 c0 15 -7 25 -22 29 -39 10 -78 7 -78 -7z"></path></g></g><g id="l1DIZNHKkoWLkUWOQQC9XaJ" fill="rgb(234,177,0)" style="transform: none;"><g style="transform: none;"><path id="pDmXyuE7W" d="M1931 3802 c-37 -124 -40 -292 -6 -292 12 0 15 17 15 82 0 87 23 180 52 212 18 20 27 20 200 -15 53 -10 133 -19 177 -19 74 0 81 2 81 20 0 18 -7 20 -80 20 -44 0 -117 7 -162 15 -46 9 -105 20 -133 25 -27 5 -67 11 -87 14 l-38 5 -19 -67z"></path><path id="p1AQGoxh7O" d="M2470 3792 c0 -18 9 -21 73 -27 63 -7 68 -9 42 -17 -81 -24 -105 -32 -167 -55 -38 -15 -68 -32 -68 -40 0 -7 -9 -13 -20 -13 -23 0 -90 -30 -90 -41 0 -4 -11 -10 -25 -13 -14 -4 -25 -11 -25 -16 0 -6 -7 -10 -15 -10 -8 0 -15 -4 -15 -10 0 -5 -7 -10 -15 -10 -8 0 -15 -7 -15 -15 0 -8 -9 -15 -20 -15 -12 0 -32 -11 -46 -25 -14 -14 -29 -25 -33 -25 -4 0 -16 -9 -26 -20 -18 -20 -18 -20 -31 2 -8 13 -17 31 -20 41 -3 9 -15 17 -25 17 -21 0 -24 -21 -10 -66 5 -16 12 -40 15 -54 12 -52 20 -52 75 -1 229 212 590 370 845 371 33 0 57 2 55 5 -3 2 -81 14 -174 25 -94 11 -191 23 -217 27 -44 5 -48 4 -48 -15z"></path><path id="pA9n7Ydu5" d="M2985 3740 c17 -4 39 -8 50 -8 16 0 15 2 -5 8 -14 4 -36 8 -50 8 -22 0 -22 -1 5 -8z"></path><path id="pIVJm0kjs" d="M3100 3727 c3 -3 36 -11 72 -17 37 -5 74 -13 82 -16 9 -3 16 -2 16 4 0 6 -12 13 -27 16 -51 10 -148 19 -143 13z"></path><path id="p13BhIYmEi" d="M2920 3073 c0 -4 22 -30 49 -58 63 -64 157 -195 188 -262 13 -28 36 -59 50 -69 37 -24 171 -133 178 -144 8 -13 65 -13 65 -1 0 6 -4 13 -10 16 -5 3 -10 16 -10 27 0 12 -21 64 -47 117 -79 157 -208 277 -374 347 -88 37 -89 37 -89 27z m200 -134 c0 -5 8 -9 19 -9 10 0 21 -9 24 -20 4 -15 14 -20 36 -20 22 0 31 -5 31 -16 0 -13 -6 -15 -32 -10 -18 4 -49 9 -70 12 -33 6 -36 9 -40 44 -3 31 -1 36 14 32 10 -2 18 -8 18 -13z"></path><path id="p6u67RadK" d="M3393 2910 c-1 -11 2 -18 8 -15 11 7 12 35 1 35 -4 0 -8 -9 -9 -20z"></path><path id="pasDlCzIk" d="M1681 2774 c-12 -20 -20 -38 -18 -41 3 -2 14 13 26 33 12 20 20 38 18 41 -3 2 -14 -13 -26 -33z"></path><path id="pqsRQL3gt" d="M1719 2715 c-42 -30 -78 -52 -80 -50 -3 2 -9 -8 -16 -21 -11 -25 -11 -25 25 -22 27 2 40 9 47 26 5 12 18 22 27 22 10 0 18 5 18 10 0 6 6 10 14 10 12 0 52 67 44 75 -2 2 -37 -21 -79 -50z"></path><path id="p854b5cKc" d="M1843 1922 c-41 -22 -87 -81 -109 -138 -33 -87 1 -266 63 -328 16 -17 21 -26 12 -26 -8 -1 6 -10 30 -21 39 -19 48 -20 89 -8 46 13 114 65 134 103 9 16 4 15 -22 -8 -28 -23 -41 -27 -77 -24 -24 2 -43 0 -43 -4 0 -5 -19 -8 -42 -7 -42 0 -44 2 -71 56 -16 30 -26 58 -23 61 3 3 6 0 6 -6 0 -7 15 -12 37 -12 l37 0 -21 20 c-12 10 -24 33 -28 50 -10 44 -35 39 -36 -7 -1 -34 -2 -35 -9 -13 -11 36 -11 132 0 150 7 11 10 5 10 -22 0 -60 24 -47 44 23 23 84 67 129 127 129 l42 0 -21 23 c-28 30 -85 34 -129 9z"></path><path id="pizVcoGkr" d="M3020 1928 c-19 -5 -42 -16 -50 -24 -12 -12 -8 -14 31 -14 37 0 52 -6 74 -27 44 -44 65 -99 65 -175 0 -61 2 -68 20 -68 15 0 20 -7 20 -27 -1 -64 -80 -164 -129 -163 -14 1 -14 2 2 11 11 6 17 22 17 44 0 42 -6 43 -32 10 -13 -16 -29 -25 -49 -25 -16 0 -29 -5 -29 -11 0 -6 -7 -8 -17 -5 -15 6 -15 5 1 -13 10 -11 38 -28 62 -37 61 -23 119 -6 182 54 26 24 39 39 30 32 -22 -15 -22 -9 -3 67 14 55 19 103 16 146 -1 20 -27 23 -34 5 -7 -21 -14 -6 -21 42 -5 41 -5 42 5 13 6 -23 16 -33 29 -33 23 0 25 13 8 61 -20 61 -65 116 -108 133 -45 18 -42 18 -90 4z m149 -105 c0 -25 -1 -26 -9 -8 -12 27 -12 35 0 35 6 0 10 -12 9 -27z"></path><path id="ptBAo477u" d="M3280 1654 c0 -5 -7 -31 -15 -59 -9 -27 -12 -45 -7 -40 14 16 36 95 29 102 -4 3 -7 2 -7 -3z"></path><path id="plnUGl08s" d="M2896 1495 c9 -14 21 -25 27 -25 6 0 0 11 -13 25 -13 14 -25 25 -27 25 -2 0 4 -11 13 -25z"></path></g></g><g id="lVqNDR2KzMyHNmqIaaIaUF" fill="rgb(232,118,80)" style="transform: none;"><g style="transform: none;"><path id="p11vnpNseU" d="M2403 3238 c-177 -271 -294 -624 -319 -964 l-7 -91 34 -31 c39 -36 45 -38 53 -17 25 65 126 -111 126 -219 0 -38 49 -157 70 -171 21 -13 83 -35 88 -30 2 2 -3 63 -12 137 -49 424 -48 774 5 1228 21 182 23 220 11 220 -4 0 -26 -28 -49 -62z"></path><path id="pDPkwrDJF" d="M1580 2180 c-30 -5 -56 -13 -58 -19 -2 -6 -17 -11 -32 -11 -16 0 -32 -5 -35 -10 -4 -6 -21 -16 -38 -24 -18 -7 -50 -30 -72 -49 l-40 -36 38 -1 c31 0 37 3 37 20 0 12 6 20 13 19 12 -3 128 50 137 63 3 4 51 10 108 14 71 5 102 11 102 19 0 24 -56 30 -160 15z"></path><path id="pVysh4BaN" d="M1750 2165 c0 -9 14 -17 38 -21 64 -11 122 -33 168 -65 41 -28 44 -29 44 -10 0 29 -70 70 -154 93 -84 22 -96 22 -96 3z"></path><path id="p9Dgpq0CA" d="M3163 2173 c-7 -2 -13 -11 -13 -19 0 -15 12 -17 48 -8 12 4 22 13 22 20 0 14 -32 18 -57 7z"></path><path id="pC4GG6pv9" d="M3290 2166 c0 -13 28 -26 58 -26 6 0 12 9 12 20 0 16 -7 20 -35 20 -23 0 -35 -5 -35 -14z"></path><path id="pW6Yaf4D5" d="M2993 2115 c-100 -57 -170 -142 -240 -292 -18 -39 -33 -74 -33 -77 0 -3 11 -6 24 -6 24 0 36 16 36 51 0 10 5 19 10 19 6 0 10 6 10 14 0 48 166 266 202 266 22 0 87 35 88 48 0 21 -32 13 -97 -23z"></path><path id="p4kjKO5a2" d="M2054 2017 c-9 -9 -4 -23 19 -54 34 -48 47 -54 47 -20 0 32 -51 90 -66 74z"></path><path id="pzIrujxaf" d="M1256 1965 c-22 -34 -20 -45 9 -45 24 0 45 25 45 54 0 25 -36 19 -54 -9z"></path><path id="pi0ln435B" d="M2160 1828 c0 -43 12 -61 38 -56 l21 3 -19 43 c-23 50 -40 54 -40 10z"></path><path id="p2DDqTdQG" d="M1190 1705 c0 -40 24 -49 34 -12 10 37 7 47 -14 47 -16 0 -20 -7 -20 -35z"></path><path id="pBK1uH4FW" d="M2193 1705 c6 -19 17 -35 25 -35 11 0 13 -8 8 -31 -3 -17 -3 -42 0 -55 7 -29 34 -32 34 -4 0 11 4 20 9 20 5 0 4 15 -2 35 -6 19 -16 35 -24 35 -8 0 -13 13 -13 35 0 30 -3 35 -24 35 -23 0 -24 -2 -13 -35z"></path><path id="p307LN2GH" d="M2720 1695 c0 -40 24 -49 34 -12 10 37 7 47 -14 47 -16 0 -20 -7 -20 -35z"></path><path id="p15KjTsoLj" d="M3730 1698 c0 -30 13 -58 26 -58 9 0 14 12 14 35 0 28 -4 35 -20 35 -11 0 -20 -6 -20 -12z"></path><path id="p13s9Nsb21" d="M2677 1598 c-9 -33 4 -108 18 -108 18 0 25 36 18 87 -6 46 -27 58 -36 21z"></path><path id="p1F9Vy0LNB" d="M3780 1545 c0 -38 3 -45 20 -45 21 0 26 23 14 68 -11 41 -34 26 -34 -23z"></path><path id="ph1Wqb0I0" d="M1146 1558 c-10 -38 -7 -58 9 -58 10 0 15 -10 15 -30 0 -36 25 -41 34 -7 10 37 7 57 -9 57 -10 0 -15 10 -15 30 0 36 -25 41 -34 8z"></path><path id="p19TawnWe5" d="M2273 1453 c3 -32 11 -59 17 -61 5 -2 10 -17 10 -33 0 -26 3 -29 35 -29 39 0 50 24 15 33 -23 6 -25 10 -40 90 -8 40 -16 57 -27 57 -13 0 -15 -9 -10 -57z"></path><path id="pvdMlktKo" d="M2670 1425 c0 -40 24 -49 34 -12 10 37 7 47 -14 47 -16 0 -20 -7 -20 -35z"></path><path id="p13yfVEioO" d="M3773 1443 c-18 -3 -23 -11 -23 -36 0 -47 10 -77 26 -77 8 0 14 8 15 18 0 10 3 12 6 5 2 -7 21 -13 41 -13 36 0 36 0 15 19 -11 11 -24 36 -27 55 -4 20 -12 35 -19 35 -7 -1 -22 -4 -34 -6z"></path><path id="pWVgl8267" d="M2380 1334 c0 -21 5 -24 35 -24 22 0 35 5 35 13 0 8 -16 18 -35 24 -33 11 -35 10 -35 -13z"></path><path id="pqylmmF90" d="M2518 1343 c-33 -8 -20 -33 17 -33 28 0 35 4 35 20 0 20 -14 23 -52 13z"></path><path id="pTvchxg38" d="M1170 1305 c0 -28 4 -35 20 -35 21 0 24 10 14 48 -10 36 -34 27 -34 -13z"></path><path id="pnPo1HNWQ" d="M3752 1288 c-7 -18 -28 -44 -47 -58 -44 -32 -44 -40 0 -40 32 0 35 2 35 30 0 25 4 30 25 30 22 0 25 4 25 35 0 45 -22 46 -38 3z"></path><path id="p11ioIxp4Y" d="M2241 1255 l-20 -35 29 0 c28 0 30 3 30 35 0 19 -4 35 -9 35 -5 0 -18 -16 -30 -35z"></path><path id="p3TwnWDml" d="M2692 1240 c3 -33 0 -40 -14 -40 -12 0 -18 10 -20 33 -3 30 -6 32 -45 35 l-43 3 0 -55 c0 -49 3 -56 19 -56 17 0 19 5 14 35 -6 40 5 45 33 14 23 -26 94 -79 106 -79 4 0 8 11 8 25 0 16 -6 25 -15 25 -8 0 -15 5 -15 10 0 6 12 10 26 10 l26 0 -33 39 c-19 22 -38 40 -43 40 -4 1 -6 -17 -4 -39z"></path><path id="pi451qNK0" d="M2310 1233 c0 -34 1 -35 18 -20 23 21 32 21 32 2 0 -8 7 -15 15 -15 10 0 15 11 15 35 0 34 -1 35 -40 35 -39 0 -40 -1 -40 -37z"></path><path id="p4WN0pxBD" d="M3578 1167 c-40 -16 -36 -37 7 -37 31 0 35 3 35 25 0 27 -2 28 -42 12z"></path><path id="p1DrV1uEr1" d="M3790 1156 c0 -23 2 -24 35 -13 19 6 35 16 35 24 0 8 -13 13 -35 13 -30 0 -35 -3 -35 -24z"></path><path id="pweeWNjZ6" d="M1380 1144 c0 -21 5 -24 35 -24 22 0 35 5 35 13 0 8 -16 18 -35 24 -33 11 -35 10 -35 -13z"></path><path id="pzrVd5LVJ" d="M2103 1158 c-45 -15 -43 -38 2 -38 31 0 35 3 35 25 0 14 -1 25 -2 24 -2 -1 -18 -6 -35 -11z"></path><path id="p11xg79IU9" d="M1470 1120 c0 -16 7 -20 35 -20 40 0 49 24 13 34 -38 10 -48 7 -48 -14z"></path><path id="pVcfFL24K" d="M1998 1133 c-33 -8 -20 -33 17 -33 28 0 35 4 35 20 0 20 -14 23 -52 13z"></path><path id="pJbu21WZ8" d="M2930 1120 c0 -16 7 -20 35 -20 40 0 49 24 13 34 -38 10 -48 7 -48 -14z"></path><path id="pMtubdaVd" d="M3448 1133 c-31 -8 -21 -33 12 -33 20 0 30 -5 30 -15 0 -16 12 -18 48 -9 33 9 28 34 -8 34 -20 0 -30 5 -30 15 0 15 -17 17 -52 8z"></path><path id="plUqmpyIS" d="M3030 1110 c0 -17 7 -20 40 -20 45 0 57 23 18 34 -42 11 -58 7 -58 -14z"></path><path id="ptsMMQ7q1" d="M3358 1123 c-33 -8 -20 -33 17 -33 28 0 35 4 35 20 0 20 -14 23 -52 13z"></path></g></g><g id="l4ldgRFfSacmdYXF5RJ5kZA" fill="rgb(252,187,7)" style="transform: none;"><g style="transform: none;"><path id="pSIqde5Bt" d="M1961 3853 c3 -19 -2 -36 -8 -29 -26 26 -57 -309 -34 -364 18 -39 46 -83 57 -87 5 -2 36 19 69 45 137 110 341 227 470 270 66 22 159 45 250 63 l60 12 -180 23 c-118 15 -203 21 -246 17 -63 -5 -96 -1 -342 48 -58 11 -97 12 -96 2z"></path><path id="p14sX0vZi2" d="M2959 3042 c32 -23 81 -75 76 -80 -4 -5 46 -87 76 -122 11 -14 18 -20 15 -14 -4 9 18 10 81 6 l86 -5 -27 36 c-38 50 -122 112 -213 158 -82 41 -140 54 -94 21z"></path><path id="pT1VGAyDN" d="M3162 2743 c16 -37 86 -103 109 -103 11 0 19 -7 19 -15 0 -9 8 -19 18 -22 9 -4 22 -13 27 -21 7 -8 24 -12 45 -10 l35 3 -90 72 c-49 40 -96 73 -102 73 -7 0 -13 4 -13 8 0 4 -14 16 -30 25 l-30 18 12 -28z"></path><path id="p1UUkWxwO" d="M1734 2722 c-59 -40 -124 -94 -124 -104 0 -4 14 -8 30 -8 20 0 30 5 30 15 0 8 9 15 20 15 11 0 25 9 32 20 7 11 17 20 22 20 13 0 46 41 46 57 0 19 -10 16 -56 -15z"></path><path id="pPSISHTaz" d="M1811 1895 c-57 -51 -83 -114 -84 -200 -1 -85 22 -167 63 -223 27 -37 35 -42 71 -42 25 0 38 -4 34 -10 -4 -6 -10 -8 -14 -6 -4 3 -13 1 -21 -5 -11 -6 -2 -9 28 -9 49 0 113 27 92 40 -10 6 -9 9 1 13 8 3 4 6 -9 6 -13 1 -34 13 -49 27 -23 23 -27 24 -42 10 -25 -22 -40 -20 -53 9 -9 20 -8 28 6 44 17 18 17 20 -3 40 -17 17 -21 34 -21 85 0 113 45 198 114 217 38 10 39 12 21 25 -36 26 -91 18 -134 -21z"></path><path id="pcfu9HlMK" d="M3033 1912 c0 -12 3 -19 6 -16 3 2 21 -10 40 -28 19 -18 29 -25 22 -15 -12 15 -12 17 1 12 9 -4 16 -16 16 -28 0 -12 8 -47 17 -77 9 -33 14 -72 11 -97 -4 -28 -1 -43 7 -46 9 -3 8 -17 -3 -62 -17 -66 -43 -91 -64 -62 -18 24 -27 22 -56 -12 -13 -17 -27 -28 -32 -25 -4 3 -5 -2 -2 -10 4 -11 0 -16 -12 -16 -39 -1 30 -29 72 -30 84 0 153 85 157 194 1 30 5 52 10 49 15 -9 6 105 -13 157 -28 76 -75 121 -133 127 -42 5 -46 4 -44 -15z"></path></g></g><g id="lY2h2BYyHCVxOw0MxNoXzC" fill="rgb(236,131,91)" style="transform: none;"><g style="transform: none;"><path id="p9plAYvjn" d="M2428 3273 c-87 -119 -193 -337 -250 -508 -37 -115 -70 -262 -65 -295 3 -25 3 -25 11 5 15 57 88 270 127 370 36 93 156 350 179 385 18 26 41 82 37 87 -3 2 -20 -18 -39 -44z"></path><path id="pAE6avoUb" d="M2097 2405 c-4 -22 -6 -53 -6 -70 1 -16 5 -3 10 30 10 67 6 102 -4 40z"></path><path id="ptekyc9jt" d="M2150 2175 c-12 -31 -17 -31 -47 -3 -13 13 -21 16 -18 8 11 -25 75 -74 75 -57 0 8 6 20 14 26 10 9 15 8 20 -4 3 -8 12 -15 21 -15 8 0 15 -9 15 -20 0 -11 5 -20 10 -20 6 0 10 -8 10 -18 0 -10 7 -27 15 -38 8 -11 14 -42 15 -76 0 -59 16 -111 31 -102 13 7 11 112 -2 159 -18 66 -47 121 -80 154 -37 38 -66 40 -79 6z"></path><path id="pJ5sdaLTK" d="M1600 2180 c-144 -17 -271 -102 -354 -235 -56 -90 -89 -225 -102 -425 -7 -117 -15 -144 -45 -169 -18 -14 -20 -26 -17 -101 l3 -84 65 -22 c166 -55 376 -84 599 -84 147 0 330 17 386 35 57 19 134 64 174 102 25 24 46 43 48 43 2 0 3 -18 3 -40 l0 -40 123 0 123 0 -4 40 c-5 45 8 52 32 16 22 -35 98 -85 161 -107 191 -67 667 -66 920 1 75 21 132 40 153 53 8 6 12 36 12 90 0 78 -2 84 -28 108 -28 24 -29 29 -36 147 -15 254 -69 408 -185 528 -96 99 -178 134 -331 141 -119 6 -198 -9 -289 -55 -97 -48 -196 -162 -250 -287 -7 -16 -19 -43 -27 -60 -19 -43 -50 -149 -69 -235 -40 -184 -33 -171 -95 -187 -53 -14 -118 -13 -202 2 -42 8 -49 23 -69 144 -8 52 -24 110 -55 206 -37 116 -114 253 -186 331 -98 106 -282 164 -458 144z m232 -45 c83 -21 128 -49 194 -118 131 -136 221 -401 227 -665 l2 -94 -40 -34 c-96 -82 -174 -99 -455 -99 -227 0 -278 7 -401 51 -79 29 -130 65 -146 102 -30 68 -2 417 44 552 53 158 146 260 263 292 19 5 49 13 65 18 49 13 187 11 247 -5z m1588 -8 c103 -33 187 -101 229 -186 24 -47 67 -173 80 -236 10 -46 30 -302 31 -385 0 -72 -87 -132 -255 -176 -99 -27 -475 -27 -582 -1 -113 27 -196 79 -214 135 -32 98 30 420 117 609 35 76 114 165 171 193 15 8 35 19 43 26 13 10 37 17 125 38 37 9 209 -3 255 -17z"></path><path id="pAzjGSxOh" d="M2737 2128 c-3 -18 -8 -41 -12 -50 -13 -33 11 -18 28 17 21 43 22 65 3 65 -7 0 -16 -14 -19 -32z"></path><path id="pxXjYq45S" d="M2320 1818 c0 -14 25 -63 40 -75 8 -7 22 -12 30 -12 9 0 5 5 -9 13 -13 7 -32 29 -42 47 -10 19 -18 31 -19 27z"></path><path id="piMzpDHJK" d="M2530 1730 c-25 -11 -38 -19 -29 -19 18 -1 89 26 89 34 0 7 -11 5 -60 -15z"></path></g></g><g id="l7kaBkwTz5uFoSW87nIxEKd" fill="rgb(243,162,142)" style="transform: none;"><g style="transform: none;"><path id="pvjTN9MRL" d="M2403 3233 c-133 -206 -211 -390 -268 -631 -34 -140 -32 -177 3 -62 48 160 116 334 195 500 32 69 65 143 73 165 8 21 20 46 28 55 13 15 28 50 22 50 -2 0 -26 -35 -53 -77z"></path><path id="plWesAu4X" d="M2660 3137 c0 -15 30 -44 75 -72 97 -59 275 -271 355 -422 44 -83 25 -24 -25 78 -74 151 -193 290 -324 378 -79 53 -81 54 -81 38z"></path><path id="p1qgUAvtk" d="M2148 3047 c-130 -99 -219 -221 -318 -437 -4 -9 -10 -31 -14 -50 -4 -22 18 13 61 95 96 184 184 293 301 374 28 19 72 81 58 81 -3 0 -43 -28 -88 -63z"></path><path id="pArcSQL9V" d="M1690 2575 c0 -22 5 -35 13 -35 8 0 18 16 24 35 11 33 10 35 -13 35 -21 0 -24 -5 -24 -35z"></path><path id="pXubHCsam" d="M1660 2455 c0 -40 24 -49 34 -12 10 37 7 47 -14 47 -16 0 -20 -7 -20 -35z"></path><path id="p9LikOXOY" d="M2164 2192 c-15 -10 -26 -70 -14 -77 6 -3 10 1 10 9 0 28 22 28 46 0 44 -52 66 -105 69 -164 1 -31 10 -70 18 -86 l16 -29 2 45 c3 133 -27 230 -90 283 -35 29 -40 31 -57 19z"></path><path id="p118rbq9DF" d="M2733 2113 c-13 -57 -11 -62 10 -29 24 36 32 76 15 76 -8 0 -18 -19 -25 -47z"></path><path id="ppruFbR0W" d="M3263 2026 c17 -17 31 -22 55 -18 64 9 29 42 -46 42 l-33 0 24 -24z"></path><path id="p2uY5G5vL" d="M2510 1720 c-21 -7 -21 -8 -5 -9 11 0 27 4 35 9 18 11 5 11 -30 0z"></path><path id="piEHDLOj8" d="M1913 1633 c-18 -7 -16 -38 3 -54 14 -11 18 -11 29 4 24 33 4 65 -32 50z"></path><path id="p7PSERJ6T" d="M2530 1609 c-19 -3 -61 -3 -92 -1 -62 5 -65 2 -52 -45 7 -25 34 -32 34 -9 0 10 19 15 69 18 74 4 85 8 79 30 -2 9 -14 11 -38 7z"></path><path id="p7vKfKJ1t" d="M3380 1445 c0 -8 -4 -15 -10 -15 -5 0 -10 -16 -10 -36 0 -42 9 -38 50 22 l31 44 -31 0 c-20 0 -30 -5 -30 -15z"></path><path id="pPG0AsPF0" d="M2800 1316 c0 -7 11 -21 25 -30 25 -16 25 -16 25 14 0 25 -4 30 -25 30 -15 0 -25 -6 -25 -14z"></path><path id="pufEs34FE" d="M2960 1300 c0 -16 7 -20 35 -20 40 0 49 24 13 34 -38 10 -48 7 -48 -14z"></path></g></g><g id="l7UGvsTmN7dfC3AmU1dX0eR" fill="rgb(255,255,254)" style="transform: none;"><g style="transform: none;"><path id="puF7nhYuT" d="M1755 2732 c-127 -86 -142 -102 -163 -171 -22 -70 -37 -142 -48 -230 -6 -53 -6 -54 17 -48 13 4 42 7 64 7 l41 0 17 104 c10 56 23 118 29 137 10 32 17 50 67 177 11 28 20 52 18 52 -1 0 -20 -12 -42 -28z"></path><path id="p1Fnwr5sWa" d="M3160 2755 c0 -4 13 -35 29 -70 47 -100 86 -250 93 -355 3 -33 5 -35 48 -42 25 -4 67 -11 94 -16 l49 -10 -7 112 c-9 165 -10 166 -96 233 -103 81 -210 156 -210 148z"></path><path id="pyEqUblzf" d="M1627 2045 c-38 -8 -96 -29 -130 -48 -71 -39 -82 -65 -49 -121 17 -29 19 -46 14 -148 -4 -100 -2 -124 17 -182 36 -111 82 -173 194 -263 l69 -55 146 4 c123 3 154 7 192 25 83 38 84 40 76 126 l-8 76 -32 -42 c-72 -95 -202 -132 -316 -91 -155 56 -250 253 -220 456 15 106 46 173 106 231 54 53 52 54 -59 32z"></path><path id="pr31nWA8t" d="M3275 2015 c66 -67 94 -140 102 -260 9 -152 -33 -282 -120 -365 -58 -56 -115 -79 -198 -79 -81 -1 -151 31 -208 95 -21 24 -41 44 -45 44 -3 0 -6 -33 -6 -72 0 -71 1 -74 33 -95 53 -36 139 -53 272 -53 l120 0 68 62 c102 92 163 179 193 277 17 56 18 170 2 222 -10 35 -9 42 10 62 12 13 27 38 33 57 11 30 10 35 -12 53 -53 44 -180 87 -255 87 -21 0 -21 -2 11 -35z"></path><path id="pMdtrHA46" d="M3159 1653 c-9 -2 -19 -17 -23 -33 -3 -19 -16 -35 -36 -45 -17 -9 -36 -31 -45 -52 -14 -32 -14 -39 0 -60 22 -33 38 -37 75 -18 35 18 43 35 61 124 10 52 10 65 -2 75 -8 7 -21 11 -30 9z"></path><path id="pphcfZt0a" d="M1911 1636 c-17 -21 -4 -56 20 -56 17 0 20 6 17 32 -3 36 -19 46 -37 24z"></path><path id="p1BePOxUwh" d="M3002 1638 c-17 -17 -15 -55 4 -62 20 -8 44 10 44 33 0 17 -18 41 -30 41 -3 0 -11 -5 -18 -12z"></path><path id="pZJtrrNny" d="M2381 1606 c0 -6 6 -38 13 -71 l13 -60 69 0 69 0 11 50 c21 88 21 88 -34 81 -26 -3 -69 -2 -95 3 -33 6 -47 5 -46 -3z"></path><path id="px5KKcIZe" d="M1802 1578 c-20 -20 -15 -95 8 -118 25 -25 72 -26 94 -1 17 19 17 22 -5 61 -13 23 -36 48 -51 56 -33 17 -31 17 -46 2z"></path></g></g></svg>